<?xml version="1.0"?>
<svg xmlns="http://www.w3.org/2000/svg" xmlns:xlink="http://www.w3.org/1999/xlink" xmlns:svgjs="http://svgjs.com/svgjs" version="1.1" width="512" height="512" x="0" y="0" viewBox="0 0 512 512" style="enable-background:new 0 0 512 512" xml:space="preserve" class=""><g><g xmlns="http://www.w3.org/2000/svg" id="Don_t_touch_eye" data-name="Don't touch eye"><g id="Filled"><circle cx="256" cy="256" fill="#f9cfcf" r="248" data-original="#ffdfc5" style="" class=""/><path d="m424.042 190.328s-32.042 66.405-168 73.046c-101.442 4.955-144.084-19.922-184.042-59.765 55.958-19.922 82.422-99.609 184.042-99.609s168 86.328 168 86.328z" fill="#ffffff" data-original="#ffffff" style="" class=""/><path d="m424.042 190.328s-24.216-31.481-65.775-56.422a195.739 195.739 0 0 1 -71.353 126.76c110.033-14.209 137.128-70.338 137.128-70.338z" fill="#efebe8" data-original="#efebe8" style="" class=""/><path d="m442.82 244.928a56 56 0 0 0 -74.358-27.255 56 56 0 0 0 -27.255 74.358l72.152 155.653a248.535 248.535 0 0 0 74.929-104.669z" fill="#f9cfcf" data-original="#ffd5c7" style="" class=""/><path d="m370.239 278.573 16.823 36.29 43.548-20.186-16.822-36.291a24 24 0 0 0 -31.868-11.681 24 24 0 0 0 -11.681 31.868z" fill="#ffffff" data-original="#ffffff" style="" class=""/><circle cx="112" cy="400" fill="#da9dff" r="104" data-original="#f27c6d" style="" class=""/><path d="m307.94 111.579c-42.677-12.527-87.963-9.86-129.177 10.1-43.413 55.256-7.163 138.128 64.176 142.174q6.434-.156 13.1-.478c71.796-3.511 109.371-98.3 51.901-151.796z" fill="#68676b" data-original="#68676b" style="" class=""/><circle cx="248" cy="180" fill="#48474a" r="52" data-original="#48474a" style=""/><circle cx="268" cy="156" fill="#ffffff" r="20" data-original="#ffffff" style="" class=""/><path d="m180.721 321.947a208.1 208.1 0 0 1 -117.666 169.832 104 104 0 0 0 117.666-169.832z" fill="#da9dff" data-original="#ed6464" style="" class=""/><path d="m377.452 294.133 9.61 20.731 43.548-20.187-16.822-36.291a24.138 24.138 0 0 0 -2.457-4.155 76.227 76.227 0 0 1 -33.879 39.902z" fill="#efebe8" data-original="#efebe8" style="" class=""/><g fill="#ffa596"><circle cx="100" cy="324" r="20" fill="#a056cd" data-original="#ffa596" style="" class=""/><circle cx="144" cy="320" r="8" fill="#a056cd" data-original="#ffa596" style="" class=""/></g></g><g id="Outline"><path d="m455.324 174.743a8 8 0 0 0 2.439-11.048c-1.983-3.1-19.7-25.081-50.43-47.634-8.523-6.257-18.008 6.629-9.467 12.9 48.327 35.472 46.37 52.861 57.458 45.782z" fill="#292142" data-original="#000000" style="" class=""/><path d="m256.04 80c73.058 0 93.536 30.931 100.492 14.858a8 8 0 0 0 -4.164-10.52c-166.82-72.209-264.268 65.953-292.847 85.006a8 8 0 0 0 -2.221 11.094c16.857 25.293 73.617-100.438 198.74-100.438z" fill="#292142" data-original="#000000" style="" class=""/><path d="m331.684 129.016a232.452 232.452 0 0 1 41.331 24.3c44.656 32.766 44.87 51.837 55.9 43.351a8 8 0 0 0 1.465-11.218c-33.353-43.427-101.345-89.449-174.338-89.449-105.108 0-133.469 81.113-186.726 100.072a8 8 0 0 0 -2.964 13.2c43.922 43.8 89.963 66.981 190.081 62.09a387.824 387.824 0 0 0 40.8-4.084c10.453-1.635 8-17.434-2.472-15.808a395.44 395.44 0 0 1 -51.578 4.377 78.8 78.8 0 0 1 -66.4-43.631c-21.65-42.961 2.921-76.688 4.791-81.112 37.635-21.742 82.371-23.645 122.3-12.315a80.052 80.052 0 0 1 5.837 108.114c-6.738 8.157 5.59 18.355 12.336 10.19a96.082 96.082 0 0 0 9.637-108.077zm-140.084 124.822c-48.252-5.719-78.1-22.545-105.407-47.695 25.248-12.991 44.786-36.321 69.419-56.692-11.47 39.604 4.694 81.602 35.988 104.387z" fill="#292142" data-original="#000000" style="" class=""/><path d="m248 120a60 60 0 1 0 60 60 60.068 60.068 0 0 0 -60-60zm20 24c15.882 0 15.866 24 0 24-15.882 0-15.866-24 0-24zm-20 80a44 44 0 1 1 .419-87.989c-17.886 17.523-5.364 47.989 19.581 47.989a28 28 0 0 0 23.2-12.336 44.034 44.034 0 0 1 -43.2 52.336z" fill="#292142" data-original="#000000" style="" class=""/><path d="m399.375 425.492a8.009 8.009 0 0 0 7.253-11.367l-58.16-125.46a48 48 0 1 1 87.095-40.37l24.959 53.84c4.449 9.6 18.972 2.88 14.516-6.73l-24.96-53.841a64 64 0 1 0 -116.126 53.836c60.128 125.347 55.701 130.092 65.423 130.092z" fill="#292142" data-original="#000000" style="" class=""/><path d="m437.868 291.313-16.822-36.292a32 32 0 0 0 -58.065 26.916c15.94 30.969 16.217 45.385 27.445 40.185l43.549-20.187a8 8 0 0 0 3.893-10.622zm-46.913 12.928-13.455-29.033a16 16 0 0 1 29.03-13.458l13.457 29.033z" fill="#292142" data-original="#000000" style="" class=""/><path d="m408.029 352.063 38.884-18.024c9.594-4.448 2.882-18.971-6.728-14.517l-38.885 18.025c-9.49 4.4-2.981 19.015 6.729 14.516z" fill="#292142" data-original="#000000" style="" class=""/><path d="m421.487 381.1 38.884-18.025c9.593-4.447 2.882-18.97-6.728-14.516l-38.884 18.024c-9.491 4.396-2.982 19.011 6.728 14.517z" fill="#292142" data-original="#000000" style="" class=""/><path d="m21.013 305.032a237.551 237.551 0 0 1 2.994-110.957c2.743-10.221-12.7-14.378-15.453-4.15a253.407 253.407 0 0 0 -3.206 118.364c2.152 10.352 17.819 7.111 15.665-3.257z" fill="#292142" data-original="#000000" style="" class=""/><path d="m308.538 490.306a237.731 237.731 0 0 1 -107.26-.577c-10.3-2.408-13.951 13.174-3.636 15.582a253.619 253.619 0 0 0 114.421.6c10.319-2.329 6.809-17.929-3.525-15.605z" fill="#292142" data-original="#000000" style="" class=""/><path d="m256 0c-96.86 0-184.39 53.788-228.431 140.373-4.8 9.43 9.46 16.694 14.262 7.254 41.297-81.19 123.361-131.627 214.169-131.627 132.337 0 240 107.664 240 240 0 100.264-63.4 190.9-157.757 225.53-9.935 3.647-4.427 18.663 5.514 15.02a256.8 256.8 0 0 0 120.331-91.365c119.478-165.913 2.997-405.185-208.088-405.185z" fill="#292142" data-original="#000000" style="" class=""/><path d="m154.876 345.81-42.876 42.876-42.876-42.876c-7.479-7.476-18.8 3.823-11.314 11.314l42.876 42.876-42.876 42.876a8 8 0 0 0 5.657 13.657c5.981 0 4.4-2.289 48.533-45.219l42.876 42.876c7.376 7.374 18.9-3.73 11.314-11.314l-42.876-42.876 42.876-42.876c7.479-7.479-3.822-18.803-11.314-11.314z" fill="#292142" data-original="#000000" style="" class=""/><path d="m203.479 429.182c-3.212 10.079 12.027 14.95 15.245 4.859 23.076-72.383-31.296-146.041-106.724-146.041a112.127 112.127 0 0 0 -112 112c0 90.265 101.25 142.378 174.572 92.9 8.768-5.917-.17-19.187-8.949-13.263-63.088 42.57-149.623-2.51-149.623-79.637a96.108 96.108 0 0 1 96-96c64.609 0 111.274 63.089 91.479 125.182z" fill="#292142" data-original="#000000" style="" class=""/><path d="m202.133 462.4c0-9.166-13.866-9.18-13.866 0s13.866 9.18 13.866 0z" fill="#292142" data-original="#000000" style="" class=""/><path d="m377.067 98.133c-9.167 0-9.18 13.867 0 13.867s9.179-13.867 0-13.867z" fill="#292142" data-original="#000000" style="" class=""/></g></g></g></svg>
