<?xml version="1.0"?>
<svg xmlns="http://www.w3.org/2000/svg" xmlns:xlink="http://www.w3.org/1999/xlink" xmlns:svgjs="http://svgjs.com/svgjs" version="1.1" width="512" height="512" x="0" y="0" viewBox="0 0 256 256" style="enable-background:new 0 0 512 512" xml:space="preserve" class=""><g><g xmlns="http://www.w3.org/2000/svg"><g><g><path d="m25.975 247.392v-110.075h21.35v110.075c0 1.74-1.41 3.15-3.15 3.15h-15.05c-1.74 0-3.15-1.41-3.15-3.15z" fill="#da9dff" data-original="#eaa97d" style="" class=""/></g></g><g><g><path d="m208.675 247.392v-110.075h21.35v110.075c0 1.74-1.41 3.15-3.15 3.15h-15.05c-1.74 0-3.15-1.41-3.15-3.15z" fill="#da9dff" data-original="#eaa97d" style="" class=""/></g></g><g><g><path d="m44.175 252.542h-15.05c-2.84 0-5.15-2.31-5.15-5.15v-110.075c0-1.104.896-2 2-2h21.35c1.104 0 2 .896 2 2v110.075c0 2.84-2.31 5.15-5.15 5.15zm-16.2-113.225v108.075c0 .634.516 1.15 1.15 1.15h15.05c.634 0 1.15-.516 1.15-1.15v-108.075z" fill="#292142" data-original="#3762cc" style="" class=""/></g></g><g><g><path d="m226.875 252.542h-15.05c-2.84 0-5.15-2.31-5.15-5.15v-110.075c0-1.104.896-2 2-2h21.35c1.104 0 2 .896 2 2v110.075c-.001 2.84-2.31 5.15-5.15 5.15zm-16.2-113.225v108.075c0 .634.516 1.15 1.15 1.15h15.05c.634 0 1.149-.516 1.149-1.15v-108.075z" fill="#292142" data-original="#3762cc" style="" class=""/></g></g><g><g><path d="m246.825 164.442h-237.65c-2.32 0-4.2-1.88-4.2-4.2v-25.2c0-2.32 1.88-4.2 4.2-4.2h237.65c2.32 0 4.2 1.88 4.2 4.2v25.2c0 2.32-1.88 4.2-4.2 4.2z" fill="#da9dff" data-original="#eaa97d" style="" class=""/></g></g><g><g><path d="m175.355 52.813c0-26.153-21.202-47.355-47.355-47.355s-47.355 21.201-47.355 47.355c0 23.228 16.728 42.536 38.792 46.568l6.699 12.919c.784 1.511 2.945 1.511 3.729 0l6.699-12.919c22.062-4.032 38.791-23.34 38.791-46.568z" fill="#e7f1ff" data-original="#f9a7a7" style="" class=""/></g></g><g><g><g><path d="m163.337 47.92c-1.405 0-2.548 1.076-2.68 2.447h-4.248c-.55-5.849-2.862-11.186-6.405-15.47l3.002-3.002c.498.41 1.101.628 1.712.628.692 0 1.385-.264 1.913-.793 1.057-1.057 1.057-2.77 0-3.827l-1.73-1.73-1.73-1.73c-1.057-1.057-2.771-1.057-3.827 0-.994.994-1.041 2.562-.165 3.625l-3.002 3.002c-4.284-3.543-9.621-5.855-15.47-6.405v-4.248c1.371-.133 2.447-1.274 2.447-2.68 0-1.495-1.212-2.706-2.706-2.706h-4.894c-1.495 0-2.706 1.212-2.706 2.706 0 1.406 1.076 2.548 2.447 2.68v4.248c-5.849.55-11.186 2.862-15.47 6.405l-3.002-3.002c.876-1.063.829-2.631-.165-3.625-1.056-1.057-2.77-1.057-3.827 0l-1.729 1.729s-.001 0-.001.001c0 0 0 .001-.001.001l-1.729 1.729c-1.057 1.057-1.057 2.77 0 3.827.529.529 1.221.793 1.914.793.61 0 1.214-.218 1.712-.628l3.002 3.002c-3.543 4.284-5.855 9.621-6.405 15.47h-4.248c-.132-1.371-1.274-2.447-2.68-2.447-1.495 0-2.706 1.212-2.706 2.706v4.893c0 1.495 1.212 2.706 2.706 2.706 1.406 0 2.548-1.076 2.68-2.447h4.248c.55 5.849 2.862 11.186 6.405 15.47l-3.002 3.002c-1.063-.876-2.631-.829-3.625.165-1.057 1.057-1.057 2.77 0 3.827l1.73 1.73s1.729 1.729 1.73 1.73c.528.528 1.221.792 1.913.792s1.385-.264 1.914-.793c.994-.994 1.041-2.562.165-3.625l3.002-3.002c4.284 3.543 9.621 5.855 15.47 6.405v4.248c-1.371.133-2.447 1.274-2.447 2.68 0 1.495 1.212 2.706 2.706 2.706h4.894c1.495 0 2.706-1.212 2.706-2.706 0-1.406-1.076-2.548-2.447-2.68v-4.248c5.849-.55 11.186-2.862 15.47-6.405l3.002 3.002c-.876 1.063-.829 2.631.165 3.625.528.528 1.221.792 1.914.792.692 0 1.385-.264 1.914-.793l1.73-1.73s1.729-1.729 1.73-1.73c1.057-1.057 1.057-2.77 0-3.827-.994-.994-2.562-1.041-3.625-.165l-3.002-3.002c3.543-4.284 5.855-9.621 6.405-15.47h4.248c.133 1.371 1.275 2.447 2.68 2.447 1.494 0 2.706-1.212 2.706-2.706v-4.893c-.002-1.492-1.214-2.704-2.708-2.704z" fill="#6bdddd" data-original="#6bdddd" style="" class=""/></g></g><g><g><circle cx="128" cy="53.073" fill="#5d61d8" r="21.744" data-original="#4671c6" style="" class=""/></g></g><g><g><g><circle cx="123.809" cy="48.133" fill="#e0ebfc" r="8.042" data-original="#e0ebfc" style="" class=""/></g></g><g><g><circle cx="135.759" cy="61.582" fill="#e0ebfc" r="4.474" data-original="#e0ebfc" style="" class=""/></g></g></g><g><g><path d="m143.678 48.583c-.951.951-2.493.951-3.444 0l-3.444-3.444c-.951-.951-.951-2.493 0-3.444.951-.951 2.493-.951 3.444 0l3.444 3.444c.951.951.951 2.493 0 3.444z" fill="#a4c9ff" data-original="#a4c9ff" style="" class=""/></g></g><g><g><path d="m121.883 65.806c-.951.951-2.493.951-3.444 0l-3.444-3.444c-.951-.951-.951-2.493 0-3.444.951-.951 2.493-.951 3.444 0l3.444 3.444c.951.951.951 2.493 0 3.444z" fill="#e7f1ff" data-original="#f9a7a7" style="" class=""/></g></g></g><g><g><path d="m128 115.433c-1.538 0-2.932-.848-3.64-2.212l-6.253-12.06c-22.926-4.66-39.462-24.836-39.462-48.348 0-27.214 22.141-49.355 49.355-49.355s49.354 22.141 49.354 49.355c0 23.512-16.536 43.688-39.462 48.348l-6.253 12.059c-.706 1.365-2.101 2.213-3.639 2.213zm0-107.975c-25.009 0-45.355 20.346-45.355 45.355 0 21.91 15.625 40.667 37.151 44.601.608.111 1.131.498 1.416 1.047l6.699 12.919c.03.058.148.058.177 0l6.699-12.919c.284-.549.808-.936 1.416-1.047 21.527-3.934 37.151-22.691 37.151-44.601 0-25.009-20.345-45.355-45.354-45.355z" fill="#292142" data-original="#3762cc" style="" class=""/></g></g><g><g><path d="m246.825 166.442h-237.65c-3.418 0-6.2-2.781-6.2-6.2v-25.2c0-3.418 2.781-6.2 6.2-6.2h237.65c3.419 0 6.2 2.781 6.2 6.2v25.2c0 3.419-2.781 6.2-6.2 6.2zm-237.65-33.6c-1.213 0-2.2.987-2.2 2.2v25.2c0 1.213.987 2.2 2.2 2.2h237.65c1.213 0 2.2-.987 2.2-2.2v-25.2c0-1.213-.987-2.2-2.2-2.2z" fill="#292142" data-original="#3762cc" style="" class=""/></g></g></g></g></svg>
