<?xml version="1.0"?>
<svg xmlns="http://www.w3.org/2000/svg" xmlns:xlink="http://www.w3.org/1999/xlink" xmlns:svgjs="http://svgjs.com/svgjs" version="1.1" width="512" height="512" x="0" y="0" viewBox="0 0 256 256" style="enable-background:new 0 0 512 512" xml:space="preserve" class=""><g><g xmlns="http://www.w3.org/2000/svg"><g><g><g><path d="m149.286 135.82h-78.821c-12.803 0-23.182 10.422-23.182 23.279v18.842 10.372h20.613v45.574h83.961c0-21.015 0-36.126 0-45.574h20.612v-10.372-18.842c-.001-12.857-10.38-23.279-23.183-23.279z" fill="#5d61d8" data-original="#4671c6" style="" class=""/></g></g><g><g><path d="m86.23 115.569v22.114.003c0 12.843 10.368 23.255 23.158 23.255 12.784 0 23.158-10.404 23.158-23.257 0-4.473 0-17.49 0-22.114h-46.316z" fill="#f9cfcf" data-original="#f9cfcf" style="" class=""/></g></g><g><g><path d="m47.282 188.313v42.574c0 1.657 1.343 3 3 3h17.613v-45.574z" fill="#f9cfcf" data-original="#f9cfcf" style="" class=""/></g></g><g><g><path d="m172.468 188.313h-20.613v45.574h16.613c2.209 0 4-1.791 4-4z" fill="#f9cfcf" data-original="#f9cfcf" style="" class=""/></g></g><g><g><path d="m151.855 235.886h-83.96c-1.104 0-2-.896-2-2v-61.139c0-1.104.896-2 2-2s2 .896 2 2v59.139h79.961v-59.139c0-1.104.896-2 2-2s2 .896 2 2v61.139c-.001 1.105-.896 2-2.001 2z" fill="#292142" data-original="#3762cc" style="" class=""/></g></g><g><g><path d="m151.855 235.886h-83.96c-1.104 0-2-.896-2-2v-43.574h-18.613c-1.104 0-2-.896-2-2v-29.213c0-13.939 11.297-25.279 25.183-25.279h13.765v-18.251c0-1.104.896-2 2-2h46.316c1.104 0 2 .896 2 2v18.251h14.74c13.885 0 25.182 11.34 25.182 25.279v29.213c0 1.104-.896 2-2 2h-18.612v43.574c-.001 1.105-.896 2-2.001 2zm-81.959-4h79.96v-43.574c0-1.104.896-2 2-2h18.612v-27.213c0-11.733-9.502-21.279-21.182-21.279h-16.74c-1.104 0-2-.896-2-2v-18.251h-42.317v18.251c0 1.104-.896 2-2 2h-15.764c-11.68 0-21.183 9.545-21.183 21.279v27.213h18.613c1.104 0 2 .896 2 2v43.574z" fill="#292142" data-original="#3762cc" style="" class=""/></g></g><g><g><path d="m67.895 235.886h-17.613c-2.757 0-5-2.243-5-5v-42.574c0-1.104.896-2 2-2h20.612c1.104 0 2 .896 2 2v45.574c.001 1.105-.895 2-1.999 2zm-18.613-45.573v40.574c0 .551.448 1 1 1h15.612v-41.574z" fill="#292142" data-original="#3762cc" style="" class=""/></g></g><g><g><path d="m168.468 235.886h-16.612c-1.104 0-2-.896-2-2v-45.574c0-1.104.896-2 2-2h20.612c1.104 0 2 .896 2 2v41.574c0 3.309-2.692 6-6 6zm-14.613-4h14.612c1.103 0 2-.897 2-2v-39.574h-16.612z" fill="#292142" data-original="#3762cc" style="" class=""/></g></g></g><g><g><path d="m109.875 120.924c-26.523 0-48.024-21.501-48.024-48.024v-20.115c0-6.667 5.404-12.071 12.071-12.071h83.976v32.186c.001 26.523-21.5 48.024-48.023 48.024z" fill="#5d61d8" data-original="#4671c6" style="" class=""/></g></g><g><g><path d="m109.875 122.923c-27.583 0-50.023-22.44-50.023-50.023v-20.115c0-7.759 6.313-14.071 14.071-14.071h83.977c1.104 0 2 .896 2 2v32.186c-.001 27.583-22.441 50.023-50.025 50.023zm-35.952-80.209c-5.554 0-10.071 4.518-10.071 10.071v20.115c0 25.377 20.646 46.023 46.023 46.023 25.378 0 46.024-20.646 46.024-46.023v-30.186z" fill="#292142" data-original="#3762cc" style="" class=""/></g></g><g><g><path d="m150.777 76.146v-3.83c0-22.386-18.312-40.534-40.902-40.534-22.59 0-40.902 18.148-40.902 40.534v3.83c-7.102-.144-12.737 5.514-12.737 12.353 0 7.303 6.376 13.08 13.817 12.293 4.221 17.933 20.443 31.294 39.822 31.294 19.381 0 35.601-13.362 39.822-31.294 7.432.786 13.817-4.98 13.817-12.293 0-6.842-5.639-12.497-12.737-12.353z" fill="#f9cfcf" data-original="#f9cfcf" style="" class=""/></g></g><g><g><path d="m109.875 134.086c-19.48 0-36.254-12.757-41.356-31.226-3.511-.049-6.908-1.36-9.527-3.718-3.021-2.719-4.755-6.598-4.755-10.644 0-3.873 1.529-7.504 4.308-10.226 2.311-2.264 5.249-3.658 8.43-4.03v-1.927c0-23.453 19.245-42.534 42.901-42.534s42.902 19.081 42.902 42.534v1.927c3.181.372 6.119 1.766 8.43 4.03 2.778 2.722 4.308 6.354 4.308 10.226 0 4.045-1.732 7.924-4.753 10.643-2.621 2.358-6.02 3.669-9.529 3.719-5.105 18.469-21.878 31.226-41.359 31.226zm-39.819-35.294c.917 0 1.73.631 1.945 1.542 4.122 17.518 19.697 29.752 37.874 29.752 18.178 0 33.752-12.235 37.875-29.752.23-.981 1.17-1.641 2.157-1.531 2.981.314 5.966-.645 8.179-2.635 2.179-1.96 3.429-4.756 3.429-7.669 0-2.788-1.104-5.405-3.107-7.369-2.023-1.983-4.747-3.048-7.589-2.985-.527.016-1.057-.194-1.44-.571s-.601-.891-.601-1.429v-3.83c0-21.248-17.451-38.534-38.902-38.534-21.45 0-38.901 17.286-38.901 38.534v3.83c0 .538-.217 1.052-.601 1.429-.384.376-.919.589-1.44.571-2.864-.048-5.565 1.002-7.589 2.985-2.004 1.963-3.107 4.581-3.107 7.369 0 2.913 1.25 5.709 3.43 7.67 2.244 2.018 5.143 2.952 8.178 2.633.068-.007.139-.01.21-.01z" fill="#292142" data-original="#3762cc" style="" class=""/></g></g><g><g><path d="m157.899 68.284h-64.171c-13.672 0-24.755-11.083-24.755-24.755 0-13.672 11.083-24.755 24.755-24.755h42.004c12.243 0 22.167 9.925 22.167 22.167z" fill="#5d61d8" data-original="#4671c6" style="" class=""/></g></g><g><g><path d="m157.899 70.284h-64.17c-14.753 0-26.755-12.002-26.755-26.755s12.002-26.755 26.755-26.755h42.003c13.326 0 24.168 10.841 24.168 24.167v27.343c-.001 1.105-.896 2-2.001 2zm-64.17-49.51c-12.547 0-22.755 10.208-22.755 22.755s10.208 22.755 22.755 22.755h62.171v-25.343c0-11.121-9.047-20.167-20.168-20.167z" fill="#292142" data-original="#3762cc" style="" class=""/></g></g><g><g><g><g><path d="m184.034 216.133c-.715 0-1.432-.254-2.005-.769-1.231-1.108-1.333-3.005-.226-4.237l9.957-11.077-3.938-1.055c-.979-.263-1.761-1.002-2.075-1.967-.315-.964-.121-2.022.515-2.812l13.915-17.283c1.04-1.29 2.928-1.495 4.219-.455 1.29 1.039 1.494 2.928.455 4.218l-11.027 13.696 4.214 1.129c1.008.27 1.803 1.044 2.1 2.045s.053 2.083-.645 2.859l-13.227 14.714c-.592.659-1.411.994-2.232.994z" fill="#da9dff" data-original="#f9a7a7" style="" class=""/></g></g></g><g><g><g><path d="m188.345 234.617c-.981 0-1.942-.48-2.518-1.364-.903-1.389-.51-3.247.879-4.151l12.484-8.122-3.531-2.038c-.879-.507-1.441-1.424-1.496-2.437-.054-1.013.407-1.985 1.226-2.583l17.914-13.093c1.339-.978 3.215-.686 4.192.652.978 1.338.686 3.214-.651 4.192l-14.196 10.375 3.778 2.181c.903.522 1.471 1.475 1.499 2.518.027 1.043-.488 2.025-1.363 2.594l-16.584 10.789c-.505.33-1.072.487-1.633.487z" fill="#da9dff" data-original="#f9a7a7" style="" class=""/></g></g></g></g><g><g><g><g><path d="m35.716 216.133c-.821 0-1.64-.335-2.232-.994l-13.227-14.714c-.697-.776-.941-1.859-.645-2.859s1.092-1.774 2.1-2.045l4.214-1.129-11.027-13.696c-1.039-1.291-.835-3.179.455-4.218 1.291-1.039 3.18-.835 4.219.455l13.915 17.283c.636.79.83 1.848.515 2.812-.314.964-1.096 1.704-2.075 1.967l-3.938 1.055 9.957 11.077c1.107 1.232 1.006 3.129-.226 4.237-.573.515-1.29.769-2.005.769z" fill="#da9dff" data-original="#f9a7a7" style="" class=""/></g></g></g><g><g><g><path d="m31.406 234.617c-.561 0-1.128-.157-1.633-.486l-16.585-10.789c-.875-.569-1.391-1.552-1.363-2.594s.596-1.997 1.499-2.518l3.778-2.181-14.196-10.376c-1.337-.978-1.629-2.855-.651-4.192.978-1.339 2.854-1.629 4.192-.652l17.914 13.093c.818.599 1.279 1.571 1.226 2.583-.055 1.013-.617 1.93-1.496 2.437l-3.53 2.038 12.484 8.122c1.389.904 1.782 2.762.879 4.151-.576.883-1.537 1.364-2.518 1.364z" fill="#da9dff" data-original="#f9a7a7" style="" class=""/></g></g></g></g><g><g><g><path d="m84.762 97.465c-.704 0-1.387-.372-1.751-1.031-.536-.966-.187-2.184.78-2.719l8.581-4.753-8.581-4.753c-.967-.535-1.316-1.752-.78-2.719.534-.966 1.754-1.314 2.718-.78l11.739 6.503c.637.353 1.031 1.022 1.031 1.75s-.395 1.397-1.031 1.75l-11.739 6.503c-.307.168-.64.249-.967.249z" fill="#292142" data-original="#3762cc" style="" class=""/></g></g><g><g><path d="m134.988 97.465c-.328 0-.66-.081-.967-.251l-11.739-6.503c-.637-.353-1.031-1.022-1.031-1.75s.395-1.397 1.031-1.75l11.739-6.503c.968-.535 2.185-.185 2.718.78.536.966.187 2.184-.78 2.719l-8.581 4.753 8.581 4.753c.967.535 1.316 1.752.78 2.719-.364.661-1.047 1.033-1.751 1.033z" fill="#292142" data-original="#3762cc" style="" class=""/></g></g></g><g><g><path d="m117.774 112.327c-.515 0-1.029-.197-1.42-.592-.889-.896-2.106-1.598-3.521-2.029-.897-.273-1.929-.402-3.16-.382-1.119.014-2.138.172-3.025.469-1.298.435-2.422 1.106-3.252 1.943-.78.784-2.045.789-2.829.011-.783-.778-.788-2.044-.011-2.828 1.268-1.277 2.936-2.287 4.822-2.918 1.282-.429 2.71-.656 4.244-.676 1.651-.013 3.079.161 4.375.556 2.047.623 3.844 1.674 5.197 3.039.778.784.772 2.051-.012 2.829-.389.385-.899.578-1.408.578z" fill="#292142" data-original="#3762cc" style="" class=""/></g></g><g><g><path d="m240.387 17.587c-18.582-18.582-48.71-18.582-67.293 0-6.602 6.602-10.846 14.663-12.756 23.144l-15.897 7.508c-1.314.621-1.314 2.49 0 3.11l15.292 7.222c1.495 9.63 5.943 18.889 13.361 26.308 18.582 18.582 48.71 18.582 67.293 0s18.582-48.71 0-67.292z" fill="#da9dff" data-original="#f9a7a7" style="" class=""/></g></g><g><g><path d="m206.74 100.793c-12.697 0-25.395-4.833-35.061-14.499-7.233-7.233-11.973-16.329-13.747-26.361l-14.347-6.775c-1.314-.621-2.131-1.91-2.131-3.364.001-1.454.817-2.743 2.133-3.364l15.024-7.097c2.157-8.765 6.662-16.756 13.067-23.161 19.332-19.333 50.789-19.333 70.121 0 19.332 19.333 19.332 50.789 0 70.121-9.664 9.667-22.361 14.5-35.059 14.5zm-60.909-50.999 14.757 6.969c.6.284 1.021.846 1.122 1.502 1.491 9.604 5.917 18.319 12.798 25.201 17.773 17.773 46.691 17.771 64.465 0 17.772-17.773 17.772-46.692 0-64.465-17.773-17.772-46.691-17.773-64.465 0-6.102 6.102-10.326 13.768-12.219 22.169-.136.601-.54 1.106-1.097 1.369z" fill="#292142" data-original="#3762cc" style="" class=""/></g></g><g><g><path d="m148.541 225.143-22.622-.118c-.612-.003-1.109-.497-1.117-1.109l-.005-.39v-.011c-.008-.603.447-1.113 1.048-1.173l18.334-1.83c1.834-.183 3.171-1.821 2.983-3.655l-.004-.035c-.188-1.832-1.823-3.167-3.655-2.984l-6.464.645-18.13 1.283-2.129-.909 8.35-8.861c1.434-1.522 1.612-4.166.233-5.738-1.65-1.881-4.513-1.897-6.188-.12l-4.328 4.593c-6.795 7.211-14.97 10.534-17.097 12.817-.242.26-.515.482-.802.681l-48.263-.734c-.772-.012-1.404.611-1.404 1.383v16.133c0 3.603 2.977 6.496 6.578 6.401 59.693-1.578 39.177-1.484 48.527.891 12.227 3.106 11.471 3.009 29.529 9.845 1.785.676 3.804-.403 4.16-2.381.267-1.488-.674-2.935-2.088-3.471l-11.84-4.482c-.517-.196-.751-.795-.504-1.29.188-.377.605-.581 1.018-.498l21.594 4.315c1.722.344 3.659-.717 4.092-2.419.478-1.877-.717-3.747-2.592-4.122l-20.101-4.016c-.513-.103-.869-.572-.83-1.094.041-.542.494-.96 1.038-.958l22.642.118c1.842.01 3.343-1.478 3.35-3.32v-.043c.008-1.838-1.475-3.334-3.313-3.344z" fill="#f9cfcf" data-original="#f9cfcf" style="" class=""/></g></g><g><g><path d="m133.018 254.35c-.61 0-1.223-.11-1.809-.332l-5.323-2.02c-12.723-4.833-13.22-5.021-23.99-7.757-1.495-.379-2.429-.916-3.179-1.347-1.255-.722-1.144-.625-3.398-.571-2.596.062-2.596.062-24.629.645l-16.776.444c-2.252.06-4.45-.786-6.091-2.383-1.638-1.595-2.54-3.732-2.54-6.017v-16.133c0-.914.358-1.77 1.009-2.41.651-.641 1.521-.984 2.426-.973l47.539.723c1.016-1.062 2.275-1.852 4.778-3.395 3.462-2.133 8.203-5.055 12.357-9.464l4.329-4.593c1.19-1.264 2.91-1.965 4.605-1.939 1.735.031 3.391.801 4.541 2.112 2.037 2.323 1.91 6.104-.281 8.429l-5.906 6.268 16.219-1.148 6.407-.64c2.922-.284 5.544 1.849 5.843 4.771.149 1.455-.268 2.845-1.17 3.95s-2.181 1.792-3.601 1.934l-5.888.587 10.062.053c2.936.016 5.314 2.417 5.304 5.352-.005 1.47-.566 2.808-1.579 3.812-1.013 1.003-2.327 1.57-3.781 1.544l-12.628-.066 10.281 2.054c1.433.287 2.702 1.16 3.48 2.396.791 1.254 1.024 2.739.658 4.18-.681 2.667-3.615 4.444-6.422 3.887l-8.95-1.789c2.24.958 3.549 3.28 3.131 5.607-.272 1.514-1.188 2.813-2.513 3.563-.779.442-1.645.666-2.515.666zm-32.31-14.924c.622.357 1.209.694 2.172.938 10.993 2.792 11.752 3.081 24.426 7.895l5.319 2.018c.309.116.65.09.937-.073.168-.095.464-.325.547-.791.089-.49-.275-1.038-.827-1.247l-11.84-4.482c-.773-.292-1.392-.902-1.693-1.673s-.263-1.639.107-2.38c.59-1.18 1.902-1.821 3.196-1.567l21.597 4.315c.729.144 1.602-.325 1.762-.952.094-.366.035-.743-.165-1.06s-.513-.533-.88-.606l-20.102-4.017c-1.502-.3-2.547-1.678-2.433-3.205.119-1.578 1.447-2.808 3.026-2.808h.017l22.643.118c.358.051.692-.135.944-.386.253-.25.394-.585.395-.941.003-.777-.592-1.376-1.325-1.38l-22.622-.118c-1.693-.009-3.087-1.395-3.105-3.087l-.005-.387c-.021-1.663 1.203-3.034 2.849-3.199l18.335-1.83c.354-.035.673-.207.898-.483.226-.276.33-.624.294-.978-.079-.77-.757-1.302-1.471-1.232l-6.465.645-18.187 1.288c-.326.023-.635-.031-.927-.156l-2.13-.909c-.601-.256-1.039-.791-1.173-1.431s.054-1.305.503-1.78l8.351-8.861c.761-.808.851-2.289.185-3.048-.415-.473-.985-.739-1.605-.75-.608-.036-1.198.231-1.624.683l-4.328 4.593c-4.517 4.794-9.518 7.876-13.17 10.126-5.253 3.238-3.16 2.335-5.041 3.641-.343.239-.739.357-1.173.359l-47.637-.724v15.506c0 1.196.473 2.315 1.331 3.151.86.838 2.006 1.294 3.194 1.25l16.775-.443c22.044-.583 22.044-.583 24.641-.645 2.498-.058 3.237-.188 5.484 1.103z" fill="#292142" data-original="#3762cc" style="" class=""/></g></g><g><g><path d="m187.52 51.188v.045 5.03c0 7.425 4.656 13.747 11.2 16.251v7.638c0 1.16.94 2.1 2.1 2.1h12.6c1.16 0 2.1-.94 2.1-2.1v-7.098c7.406-2.003 12.863-8.751 12.863-16.791v-5.076h-40.863z" fill="#e0ebfc" data-original="#e0ebfc" style="" class=""/></g></g><g><g><path d="m203.25 25.008c0-1.657-1.343-3-3-3h-9.73c-1.657 0-3 1.343-3 3v26.18h15.73z" fill="#e0ebfc" data-original="#e0ebfc" style="" class=""/></g></g><g><g><path d="m213.42 84.253h-12.6c-2.261 0-4.1-1.839-4.1-4.1v-6.317c-6.753-3.166-11.2-10.06-11.2-17.573v-5.03c0-1.104.896-2.045 2-2.045h40.862c1.104 0 2 .896 2 2v5.075c0 8.22-5.217 15.52-12.862 18.258v5.631c.001 2.262-1.839 4.101-4.1 4.101zm-23.899-31.065v3.075c0 6.334 3.984 12.114 9.915 14.383.773.296 1.285 1.04 1.285 1.868v7.639c0 .055.045.1.1.1h12.6c.056 0 .101-.045.101-.1v-7.098c0-.903.605-1.695 1.478-1.931 6.703-1.813 11.385-7.923 11.385-14.86v-3.075h-36.864z" fill="#292142" data-original="#3762cc" style="" class=""/></g></g><g><g><path d="m203.25 53.188h-15.729c-1.104 0-2-.896-2-2v-26.18c0-2.757 2.243-5 5-5h9.729c2.757 0 5 2.243 5 5v26.18c0 1.105-.896 2-2 2zm-13.729-4h11.729v-24.18c0-.551-.448-1-1-1h-9.729c-.552 0-1 .449-1 1z" fill="#292142" data-original="#3762cc" style="" class=""/></g></g></g></g></svg>
