<?xml version="1.0"?>
<svg xmlns="http://www.w3.org/2000/svg" xmlns:xlink="http://www.w3.org/1999/xlink" xmlns:svgjs="http://svgjs.com/svgjs" version="1.1" width="512" height="512" x="0" y="0" viewBox="0 0 256 256" style="enable-background:new 0 0 512 512" xml:space="preserve" class=""><g><g xmlns="http://www.w3.org/2000/svg"><g><g><g><path d="m121.928 138.57h-79.797c-12.962 0-23.469 10.508-23.469 23.469v29.453h20.868v21.536h85v-21.536h20.868c0-10.996 0-18.411 0-29.453-.001-12.961-10.509-23.469-23.47-23.469z" fill="#5d61d8" data-original="#4671c6" style="" class=""/></g></g><g><g><path d="m58.091 118.153v22.295.003c0 12.948 10.497 23.445 23.445 23.445 12.942 0 23.445-10.489 23.445-23.448 0-4.51 0-17.633 0-22.295z" fill="#f9cfcf" data-original="#f9cfcf" style="" class=""/></g></g><g><g><path d="m18.662 191.493h20.868v21.536h-20.868z" fill="#f9cfcf" data-original="#f9cfcf" style="" class=""/></g></g><g><g><path d="m124.529 191.493h20.868v21.536h-20.868z" fill="#f9cfcf" data-original="#f9cfcf" style="" class=""/></g></g><g><g><path d="m145.397 215.029h-126.735c-1.104 0-2-.896-2-2v-50.989c0-14.044 11.426-25.47 25.47-25.47h13.96v-18.417c0-1.104.896-2 2-2h46.89c1.104 0 2 .896 2 2v18.417h14.947c14.044 0 25.469 11.426 25.469 25.47v50.989c-.001 1.104-.897 2-2.001 2zm-124.735-4h122.735v-48.989c0-11.838-9.631-21.47-21.469-21.47h-16.947c-1.104 0-2-.896-2-2v-18.417h-42.89v18.417c0 1.104-.896 2-2 2h-15.96c-11.838 0-21.47 9.631-21.47 21.47v48.989z" fill="#292142" data-original="#3762cc" style="" class=""/></g></g><g><g><path d="m82.029 122.096c-30.364 0-54.978-24.614-54.978-54.978v-23.027c0-7.632 6.187-13.819 13.819-13.819h96.137v36.847c0 30.363-24.614 54.977-54.978 54.977z" fill="#5d61d8" data-original="#4671c6" style="" class=""/></g></g><g><g><path d="m82.029 124.096c-31.418 0-56.978-25.56-56.978-56.978v-23.027c0-8.723 7.097-15.819 15.819-15.819h96.137c1.104 0 2 .896 2 2v36.847c0 31.417-25.56 56.977-56.978 56.977zm-41.158-91.824c-6.517 0-11.819 5.302-11.819 11.819v23.028c0 29.212 23.766 52.978 52.978 52.978s52.978-23.766 52.978-52.978v-34.847z" fill="#292142" data-original="#3762cc" style="" class=""/></g></g><g><g><path d="m128.854 70.835v-4.385c0-25.628-20.964-46.403-46.825-46.403-25.861 0-46.825 20.775-46.825 46.403v4.384c-8.131-.165-14.582 6.312-14.582 14.142 0 8.361 7.299 14.974 15.818 14.073 4.832 20.53 23.403 35.826 45.588 35.826 22.187 0 40.756-15.297 45.588-35.826 8.508.9 15.818-5.701 15.818-14.073.002-7.833-6.454-14.306-14.58-14.141z" fill="#f9cfcf" data-original="#f9cfcf" style="" class=""/></g></g><g><g><path d="m82.029 136.875c-22.244 0-41.386-14.615-47.124-35.746-4.026-.003-7.935-1.483-10.936-4.183-3.398-3.058-5.347-7.42-5.347-11.97 0-4.355 1.72-8.439 4.844-11.5 2.66-2.607 6.062-4.188 9.737-4.56v-2.466c0-26.689 21.903-48.403 48.825-48.403s48.825 21.713 48.825 48.403v2.467c3.676.372 7.076 1.953 9.737 4.561 3.124 3.061 4.844 7.145 4.844 11.499 0 4.549-1.948 8.911-5.345 11.968-3.002 2.701-6.912 4.181-10.938 4.185-5.736 21.13-24.878 35.745-47.122 35.745zm-45.586-39.825c.918 0 1.731.631 1.945 1.542 4.751 20.186 22.697 34.284 43.641 34.284s38.89-14.098 43.642-34.284c.231-.98 1.155-1.641 2.157-1.531 3.495.37 6.994-.756 9.587-3.09 2.556-2.299 4.021-5.578 4.021-8.994 0-3.271-1.294-6.34-3.644-8.642-2.374-2.326-5.535-3.582-8.897-3.5-.529.011-1.056-.195-1.44-.571s-.6-.891-.6-1.429v-4.385c0-24.484-20.108-44.403-44.825-44.403-24.716 0-44.825 19.919-44.825 44.403v4.385c0 .538-.216 1.052-.6 1.429-.384.375-.904.579-1.44.571-3.365-.05-6.525 1.175-8.897 3.5-2.35 2.303-3.644 5.372-3.644 8.643 0 3.417 1.466 6.696 4.022 8.996 2.592 2.333 6.092 3.46 9.585 3.088.071-.009.142-.012.212-.012z" fill="#292142" data-original="#3762cc" style="" class=""/></g></g><g><g><path d="m137.007 61.834h-73.463c-15.652 0-28.34-12.688-28.34-28.34 0-15.652 12.688-28.34 28.34-28.34h48.086c14.016 0 25.377 11.362 25.377 25.377z" fill="#5d61d8" data-original="#4671c6" style="" class=""/></g></g><g><g><path d="m137.007 63.834h-73.463c-16.729 0-30.339-13.61-30.339-30.34 0-16.729 13.61-30.339 30.339-30.339h48.086c15.096 0 27.377 12.281 27.377 27.377v31.302c0 1.105-.895 2-2 2zm-73.463-56.679c-14.523 0-26.339 11.816-26.339 26.339 0 14.524 11.816 26.34 26.339 26.34h71.463v-29.302c0-12.89-10.487-23.377-23.377-23.377z" fill="#292142" data-original="#3762cc" style="" class=""/></g></g><g><g><path d="m48.69 101.05h-12.249c-1.104 0-2-.896-2-2s.896-2 2-2h9.076l-12.117-25.353c-.476-.997-.054-2.19.942-2.667.996-.475 2.191-.054 2.667.942l13.485 28.215c.296.62.253 1.348-.113 1.929s-1.004.934-1.691.934z" fill="#292142" data-original="#3762cc" style="" class=""/></g></g><g><g><path d="m127.616 101.05h-12.249c-.687 0-1.326-.353-1.692-.934s-.409-1.309-.113-1.929l13.485-28.215c.477-.996 1.671-1.417 2.667-.942.997.477 1.418 1.67.942 2.667l-12.116 25.353h9.076c1.104 0 2 .896 2 2s-.896 2-2 2z" fill="#292142" data-original="#3762cc" style="" class=""/></g></g><g><g><path d="m48.69 121.036c8.488 8.541 20.286 13.84 33.339 13.84s24.85-5.298 33.338-13.838v-21.988h-66.677z" fill="#da9dff" data-original="#e0ebfc" style="" class=""/></g></g><g><g><g><path d="m97.588 109.508h-31.117c-1.021 0-1.848-.828-1.848-1.848 0-1.021.828-1.848 1.848-1.848h31.117c1.021 0 1.848.828 1.848 1.848s-.827 1.848-1.848 1.848z" fill="#a4c9ff" data-original="#a4c9ff" style="" class=""/></g></g></g><g><g><g><path d="m97.588 117.509h-31.117c-1.021 0-1.848-.828-1.848-1.848 0-1.021.828-1.848 1.848-1.848h31.117c1.021 0 1.848.828 1.848 1.848 0 1.021-.827 1.848-1.848 1.848z" fill="#a4c9ff" data-original="#a4c9ff" style="" class=""/></g></g></g><g><g><g><path d="m97.588 125.511h-31.117c-1.021 0-1.848-.828-1.848-1.848 0-1.021.828-1.848 1.848-1.848h31.117c1.021 0 1.848.828 1.848 1.848s-.827 1.848-1.848 1.848z" fill="#a4c9ff" data-original="#a4c9ff" style="" class=""/></g></g></g><g><g><path d="m82.029 136.875c-13.165 0-25.509-5.125-34.758-14.43-.373-.375-.582-.882-.582-1.41v-21.985c0-1.104.896-2 2-2h66.677c1.104 0 2 .896 2 2v21.987c0 .528-.209 1.035-.582 1.41-9.247 9.304-21.59 14.428-34.755 14.428zm-31.339-16.674c8.425 8.18 19.521 12.675 31.339 12.675s22.913-4.494 31.338-12.674v-19.152h-62.677z" fill="#292142" data-original="#3762cc" style="" class=""/></g></g><g><g><g><path d="m116.512 208.265c-1.385 0-2.511 1.06-2.642 2.412h-4.187c-.543-5.766-2.821-11.026-6.314-15.249l2.959-2.959c.491.404 1.086.619 1.687.619.682 0 1.365-.261 1.886-.781 1.042-1.042 1.042-2.731 0-3.773l-1.705-1.705s0 0 0 0l-1.705-1.705c-1.042-1.042-2.731-1.042-3.773 0-.98.979-1.026 2.525-.163 3.573l-2.959 2.959c-4.223-3.492-9.483-5.771-15.249-6.313v-4.188c1.351-.131 2.412-1.256 2.412-2.642 0-1.474-1.194-2.668-2.668-2.668h-4.824c-1.473 0-2.668 1.194-2.668 2.668 0 1.386 1.06 2.511 2.412 2.642v4.188c-5.766.542-11.026 2.821-15.249 6.313l-2.959-2.959c.863-1.048.817-2.594-.163-3.573-1.041-1.042-2.731-1.042-3.773 0l-1.705 1.705s-.001 0-.001.001c0 0 0 0-.001.001l-1.704 1.704c-1.042 1.042-1.042 2.731 0 3.772.521.521 1.204.782 1.887.782.601 0 1.196-.214 1.687-.619l2.959 2.959c-3.492 4.223-5.771 9.483-6.314 15.249h-4.187c-.131-1.352-1.256-2.412-2.642-2.412-1.473 0-2.668 1.194-2.668 2.668v4.823c0 1.473 1.194 2.668 2.668 2.668 1.386 0 2.511-1.06 2.642-2.412h4.187c.543 5.766 2.821 11.026 6.314 15.249l-2.959 2.959c-1.048-.863-2.594-.817-3.574.163-1.042 1.042-1.042 2.731 0 3.773l1.704 1.705s0 0 .001.001c0 0 .001 0 .001.001l1.705 1.705c.521.521 1.204.781 1.886.781s1.365-.261 1.886-.781c.98-.98 1.026-2.525.163-3.573l2.959-2.959c4.223 3.492 9.483 5.771 15.249 6.313v4.187c-1.352.131-2.412 1.256-2.412 2.642 0 1.473 1.194 2.668 2.668 2.668h4.824c1.473 0 2.668-1.194 2.668-2.668 0-1.385-1.06-2.511-2.412-2.642v-4.188c5.766-.542 11.026-2.821 15.249-6.313l2.959 2.959c-.863 1.048-.817 2.594.163 3.573.521.521 1.204.781 1.886.781s1.365-.261 1.886-.781l1.705-1.705 1.705-1.705c1.042-1.042 1.042-2.731 0-3.773-.979-.979-2.525-1.026-3.573-.163l-2.959-2.959c3.492-4.223 5.771-9.483 6.314-15.249h4.187c.131 1.352 1.257 2.412 2.642 2.412 1.473 0 2.668-1.194 2.668-2.668v-4.823c.001-1.475-1.193-2.67-2.666-2.67z" fill="#94d8d6" data-original="#6bdddd" style="" class=""/></g></g><g><g><circle cx="81.679" cy="213.345" fill="#5d61d8" r="21.433" data-original="#4671c6" style="" class=""/></g></g><g><g><g><circle cx="77.548" cy="208.475" fill="#da9dff" r="7.928" data-original="#e0ebfc" style="" class=""/></g></g><g><g><circle cx="89.328" cy="221.732" fill="#da9dff" r="4.41" data-original="#e0ebfc" style="" class=""/></g></g></g><g><g><path d="m97.133 208.919c-.938.938-2.457.938-3.395 0l-3.395-3.395c-.938-.938-.938-2.457 0-3.395.937-.938 2.457-.938 3.395 0l3.395 3.395c.938.937.938 2.457 0 3.395z" fill="#a4c9ff" data-original="#a4c9ff" style="" class=""/></g></g><g><g><path d="m75.65 225.896c-.938.938-2.457.938-3.395 0l-3.395-3.395c-.937-.938-.937-2.457 0-3.395.937-.938 2.457-.938 3.395 0l3.395 3.395c.937.937.937 2.457 0 3.395z" fill="#e7f1ff" data-original="#f9a7a7" style="" class=""/></g></g><g><g><path d="m84.091 252.845h-4.824c-2.574 0-4.667-2.094-4.667-4.667 0-1.753.961-3.286 2.412-4.08v-.984c-4.741-.736-9.206-2.585-13.083-5.417l-.695.695c.464 1.587.061 3.35-1.179 4.589-.882.882-2.054 1.367-3.3 1.367-1.247 0-2.419-.485-3.3-1.367l-3.411-3.411c-.881-.881-1.367-2.053-1.367-3.3s.485-2.419 1.367-3.301c1.24-1.24 3.004-1.644 4.59-1.179l.695-.695c-2.833-3.876-4.681-8.341-5.417-13.083h-.984c-.794 1.451-2.326 2.412-4.08 2.412-2.574 0-4.667-2.094-4.667-4.667v-4.824c0-2.574 2.094-4.668 4.667-4.668 1.753 0 3.286.961 4.08 2.412h.984c.736-4.742 2.584-9.206 5.417-13.083l-.694-.694c-1.611.475-3.399.011-4.591-1.18-.882-.881-1.368-2.053-1.367-3.3 0-1.248.486-2.419 1.368-3.301l1.703-1.704c.009-.009.018-.018.027-.026l1.68-1.68c.881-.882 2.054-1.367 3.3-1.367 1.247 0 2.419.486 3.3 1.367 1.24 1.239 1.644 3.002 1.179 4.589l.695.695c3.877-2.833 8.341-4.681 13.083-5.417v-.984c-1.451-.793-2.412-2.326-2.412-4.079 0-2.574 2.094-4.667 4.667-4.667h4.824c2.574 0 4.668 2.094 4.668 4.667 0 1.753-.961 3.285-2.412 4.079v.985c4.742.736 9.206 2.584 13.083 5.417l.695-.695c-.465-1.587-.061-3.35 1.179-4.59 1.82-1.82 4.781-1.82 6.601 0l3.411 3.411c1.82 1.82 1.819 4.782 0 6.601-1.192 1.191-2.981 1.655-4.59 1.18l-.694.694c2.832 3.876 4.681 8.341 5.417 13.083h.984c.794-1.451 2.326-2.412 4.079-2.412 2.574 0 4.667 2.094 4.667 4.668v4.824c0 2.574-2.094 4.667-4.667 4.667-1.753 0-3.286-.961-4.08-2.412h-.984c-.736 4.741-2.585 9.206-5.417 13.083l.695.695c1.586-.464 3.35-.061 4.589 1.179 1.82 1.82 1.82 4.781 0 6.601l-3.41 3.411c-.883.882-2.055 1.367-3.301 1.367s-2.418-.485-3.3-1.366c-1.24-1.24-1.644-3.003-1.18-4.59l-.695-.695c-3.877 2.833-8.342 4.682-13.083 5.417v.984c1.451.793 2.412 2.326 2.412 4.079.001 2.573-2.093 4.667-4.667 4.667zm-20.328-19.811c.451 0 .903.152 1.274.459 4.044 3.345 8.941 5.373 14.162 5.864 1.027.097 1.813.959 1.813 1.991v4.187c0 1.03-.783 1.892-1.808 1.991-.344.033-.604.313-.604.651 0 .368.299.667.667.667h4.824c.368 0 .668-.299.668-.667 0-.338-.26-.618-.604-.651-1.025-.099-1.808-.96-1.808-1.991v-4.188c0-1.032.785-1.895 1.813-1.991 5.22-.491 10.118-2.519 14.163-5.864.794-.658 1.96-.603 2.689.127l2.959 2.959c.728.729.784 1.891.129 2.686-.22.267-.206.648.033.888.17.17.369.195.472.195.104 0 .302-.025.473-.196l3.41-3.41c.17-.17.195-.369.195-.472 0-.104-.025-.302-.196-.473-.239-.238-.621-.252-.888-.033-.794.655-1.957.598-2.685-.13l-2.959-2.958c-.729-.729-.785-1.894-.127-2.689 3.344-4.044 5.372-8.941 5.864-14.162.097-1.027.959-1.813 1.991-1.813h4.187c1.03 0 1.892.783 1.991 1.808.033.344.313.604.651.604.368 0 .667-.299.667-.667v-4.824c0-.368-.299-.668-.667-.668-.338 0-.618.26-.651.605-.099 1.025-.961 1.807-1.991 1.807h-4.187c-1.032 0-1.895-.785-1.991-1.813-.492-5.221-2.52-10.118-5.864-14.162-.658-.795-.603-1.959.127-2.688l2.959-2.959c.728-.729 1.891-.785 2.686-.129.128.106.272.162.415.162.103 0 .302-.025.473-.196.26-.26.26-.684 0-.944l-3.411-3.411c-.17-.17-.369-.195-.472-.195-.103 0-.302.025-.472.195-.239.239-.253.621-.033.888.655.795.599 1.958-.129 2.686l-2.959 2.959c-.729.729-1.895.785-2.688.126-4.044-3.345-8.942-5.372-14.162-5.863-1.027-.097-1.813-.959-1.813-1.991v-4.188c0-1.03.782-1.892 1.807-1.991.345-.033.605-.313.605-.651 0-.368-.3-.667-.668-.667h-4.824c-.368 0-.667.299-.667.667 0 .338.26.618.604.651 1.025.099 1.808.96 1.808 1.991v4.188c0 1.032-.785 1.895-1.813 1.991-5.22.491-10.118 2.519-14.162 5.863-.794.657-1.959.602-2.688-.126l-2.959-2.959c-.729-.729-.785-1.891-.129-2.686.22-.267.206-.648-.033-.887-.17-.17-.369-.196-.472-.196-.103 0-.302.025-.472.195l-1.705 1.705c-.008.009-.017.018-.026.026l-1.68 1.68c-.171.171-.196.369-.196.472 0 .104.025.302.195.472.17.171.369.196.472.196.141 0 .288-.058.415-.162.795-.656 1.959-.599 2.687.129l2.959 2.959c.729.729.784 1.894.126 2.688-3.345 4.044-5.372 8.941-5.863 14.162-.097 1.027-.959 1.813-1.991 1.813h-4.188c-1.03 0-1.892-.783-1.991-1.808-.033-.344-.313-.604-.651-.604-.368 0-.667.3-.667.668v4.824c0 .368.299.667.667.667.338 0 .618-.26.651-.604.099-1.025.96-1.808 1.991-1.808h4.188c1.032 0 1.895.785 1.991 1.813.491 5.221 2.519 10.118 5.863 14.162.658.795.603 1.959-.127 2.688l-2.959 2.959c-.727.727-1.891.784-2.686.129-.267-.219-.648-.205-.888.033-.17.17-.195.369-.195.472s.025.301.195.471l1.699 1.699c.005.005.01.011.016.016l1.697 1.697c.17.17.369.195.472.195s.302-.025.473-.196c.238-.238.252-.62.033-.887-.655-.795-.599-1.958.129-2.686l2.959-2.959c.386-.386.898-.583 1.412-.583z" fill="#292142" data-original="#3762cc" style="" class=""/></g></g></g><g><g><path d="m39.529 215.029c-1.104 0-2-.896-2-2v-37.229c0-1.104.896-2 2-2s2 .896 2 2v37.229c0 1.104-.895 2-2 2z" fill="#292142" data-original="#3762cc" style="" class=""/></g></g><g><g><path d="m124.529 215.029c-1.104 0-2-.896-2-2v-37.229c0-1.104.896-2 2-2s2 .896 2 2v37.229c0 1.104-.895 2-2 2z" fill="#292142" data-original="#3762cc" style="" class=""/></g></g><g><g><path d="m39.529 215.029h-20.867c-1.104 0-2-.896-2-2v-21.536c0-1.104.896-2 2-2h20.868c1.104 0 2 .896 2 2v21.536c-.001 1.104-.896 2-2.001 2zm-18.867-4h16.868v-17.536h-16.868z" fill="#292142" data-original="#3762cc" style="" class=""/></g></g><g><g><path d="m145.397 215.029h-20.868c-1.104 0-2-.896-2-2v-21.536c0-1.104.896-2 2-2h20.868c1.104 0 2 .896 2 2v21.536c0 1.104-.896 2-2 2zm-18.868-4h16.868v-17.536h-16.868z" fill="#292142" data-original="#3762cc" style="" class=""/></g></g><g fill="#3762cc"><path d="m70.972 76.478c-.78-.781-2.048-.781-2.828 0l-5.74 5.74-5.74-5.74c-.78-.781-2.048-.781-2.828 0-.781.781-.781 2.047 0 2.828l5.74 5.74-5.74 5.74c-.781.781-.781 2.047 0 2.828.39.391.902.586 1.414.586s1.024-.195 1.414-.586l5.74-5.74 5.74 5.74c.39.391.902.586 1.414.586s1.024-.195 1.414-.586c.781-.781.781-2.047 0-2.828l-5.74-5.74 5.74-5.74c.781-.781.781-2.047 0-2.828z" fill="#292142" data-original="#3762cc" style="" class=""/><path d="m104.437 85.046 5.74-5.74c.781-.781.781-2.047 0-2.828-.78-.781-2.048-.781-2.828 0l-5.74 5.74-5.74-5.74c-.78-.781-2.048-.781-2.828 0-.781.781-.781 2.047 0 2.828l5.74 5.74-5.74 5.74c-.781.781-.781 2.047 0 2.828.39.391.902.586 1.414.586s1.024-.195 1.414-.586l5.74-5.74 5.74 5.74c.39.391.902.586 1.414.586s1.024-.195 1.414-.586c.781-.781.781-2.047 0-2.828z" fill="#292142" data-original="#3762cc" style="" class=""/></g></g><g><g><path d="m218.268 226.029h-37.716c-2.761 0-5-2.239-5-5v-61.699h47.716v61.698c0 2.762-2.239 5.001-5 5.001z" fill="#94d8d6" data-original="#6bdddd" style="" class=""/></g></g><g><g><path d="m175.551 92.632h47.716v66.698h-47.716z" fill="#da9dff" data-original="#ffea92" style="" class=""/></g></g><g><g><path d="m223.268 92.632h-47.716v-61.699c0-2.761 2.239-5 5-5h37.716c2.761 0 5 2.239 5 5z" fill="#e7f1ff" data-original="#f9a7a7" style="" class=""/></g></g><g><g><path d="m218.268 228.029h-37.716c-3.86 0-7-3.14-7-7v-61.699c0-1.104.896-2 2-2h47.716c1.104 0 2 .896 2 2v61.699c0 3.86-3.141 7-7 7zm-40.717-66.699v59.699c0 1.654 1.346 3 3 3h37.716c1.654 0 3-1.346 3-3v-59.699z" fill="#292142" data-original="#3762cc" style="" class=""/></g></g><g><g><path d="m223.268 161.33h-47.716c-1.104 0-2-.896-2-2v-66.698c0-1.104.896-2 2-2h47.716c1.104 0 2 .896 2 2v66.698c0 1.105-.896 2-2 2zm-45.717-4h43.716v-62.698h-43.716z" fill="#292142" data-original="#3762cc" style="" class=""/></g></g><g><g><path d="m223.268 94.632h-47.716c-1.104 0-2-.896-2-2v-61.699c0-3.86 3.14-7 7-7h37.716c3.86 0 7 3.14 7 7v61.699c0 1.104-.896 2-2 2zm-45.717-4h43.716v-59.699c0-1.654-1.346-3-3-3h-37.716c-1.654 0-3 1.346-3 3z" fill="#292142" data-original="#3762cc" style="" class=""/></g></g><g><g><path d="m237.338 44.665v29.426c0 1.741-2.024 2.698-3.37 1.594l-17.929-14.713c-1.005-.825-1.005-2.363 0-3.188l17.929-14.713c1.346-1.104 3.37-.147 3.37 1.594z" fill="#5d61d8" data-original="#4671c6" style="" class=""/></g></g><g><g><path d="m235.268 78.159c-.917 0-1.821-.315-2.567-.927l-17.929-14.714c-.944-.774-1.485-1.918-1.485-3.14s.542-2.366 1.485-3.14l17.928-14.713c1.225-1.008 2.878-1.212 4.313-.532 1.434.678 2.325 2.085 2.325 3.672v29.426c0 1.586-.891 2.993-2.325 3.672-.561.265-1.156.396-1.745.396zm.067-33.526-18.027 14.697 17.929 14.809.101-.048v-29.426c0-.023-.003-.032-.003-.032z" fill="#292142" data-original="#3762cc" style="" class=""/></g></g></g></g></svg>
