<?xml version="1.0"?>
<svg xmlns="http://www.w3.org/2000/svg" xmlns:xlink="http://www.w3.org/1999/xlink" xmlns:svgjs="http://svgjs.com/svgjs" version="1.1" width="512" height="512" x="0" y="0" viewBox="0 0 256 256" style="enable-background:new 0 0 512 512" xml:space="preserve" class=""><g><g xmlns="http://www.w3.org/2000/svg"><g><g><path d="m40.38 119.293v108.205c0 6.323 5.126 11.449 11.449 11.449h152.343c6.323 0 11.449-5.126 11.449-11.449v-108.205h5.428 24.225c3.584 0 5.191-4.493 2.421-6.767l-113.793-93.361c-3.431-2.815-8.373-2.815-11.804 0l-113.792 93.361c-2.771 2.273-1.163 6.767 2.421 6.767h24.225z" fill="#a4c9ff" data-original="#a4c9ff" style="" class=""/></g></g><g><g><path d="m124.379 32.927c2.107-1.721 5.135-1.721 7.242 0l92.768 75.764c1.385 1.137.582 3.383-1.21 3.383h-19.363v108.232c0 3.162-2.563 5.724-5.724 5.724h-140.183c-3.162 0-5.724-2.563-5.724-5.724v-108.231h-19.363c-1.792 0-2.596-2.247-1.21-3.383z" fill="#e0ebfc" data-original="#e0ebfc" style="" class=""/></g></g><g><g><path d="m174.876 157.317c-.815-2.198-2.066-4.209-3.677-5.913l-4.417-4.672-9.819-26.161-10.33 7.788c-.007.14-.014.286-.021.427l10.984 23.636.575 9.006c-.039 1.435.936 1.934 1.716 1.862.86-.079 1.498-.834 1.431-1.695l-.339-4.368c1.697 2.939 2.126 3.659 4.576 5.984 1.351 1.282 3.386 1.524 4.998.593l2.469-1.425c1.761-1.016 2.561-3.156 1.854-5.062z" fill="#f9cfcf" data-original="#f9cfcf" style="" class=""/></g></g><g><g><path d="m109.14 128.354-10.322-7.782-9.819 26.161-4.417 4.672c-1.611 1.704-2.861 3.715-3.676 5.913-.707 1.906.093 4.047 1.854 5.063l2.469 1.425c1.612.931 3.648.688 4.998-.593 2.45-2.325 2.879-3.045 4.576-5.984l-.339 4.368c-.067.861.571 1.616 1.431 1.695.78.071 1.755-.427 1.716-1.862l.575-9.006 10.977-23.621c-.008-.149-.015-.302-.023-.449z" fill="#f9cfcf" data-original="#f9cfcf" style="" class=""/></g></g><g><g><g><g><path d="m40.38 130.264c-1.581 0-2.862-1.282-2.862-2.862v-5.247h-5.248c-1.581 0-2.862-1.282-2.862-2.862s1.282-2.862 2.862-2.862h8.11c1.581 0 2.862 1.282 2.862 2.862v8.11c0 1.58-1.282 2.861-2.862 2.861z" fill="#5d61d8" data-original="#4671c6" style="" class=""/></g></g></g><g><g><g><path d="m203.997 241.809h-16.891c-1.581 0-2.862-1.282-2.862-2.862s1.282-2.862 2.862-2.862h16.891c1.581 0 2.862 1.282 2.862 2.862s-1.281 2.862-2.862 2.862zm-33.782 0h-16.891c-1.581 0-2.862-1.282-2.862-2.862s1.282-2.862 2.862-2.862h16.891c1.581 0 2.862 1.282 2.862 2.862s-1.281 2.862-2.862 2.862zm-33.782 0h-16.891c-1.581 0-2.862-1.282-2.862-2.862s1.282-2.862 2.862-2.862h16.891c1.581 0 2.862 1.282 2.862 2.862s-1.281 2.862-2.862 2.862zm-33.782 0h-16.89c-1.581 0-2.862-1.282-2.862-2.862s1.282-2.862 2.862-2.862h16.891c1.581 0 2.862 1.282 2.862 2.862s-1.282 2.862-2.863 2.862zm-33.781 0h-16.891c-1.581 0-2.862-1.282-2.862-2.862s1.282-2.862 2.862-2.862h16.891c1.581 0 2.862 1.282 2.862 2.862s-1.282 2.862-2.862 2.862zm146.684-10.177c-.105 0-.211-.006-.318-.018-1.571-.174-2.704-1.588-2.531-3.159.035-.315.053-.638.053-.957v-15.617c0-1.581 1.282-2.862 2.862-2.862 1.581 0 2.862 1.282 2.862 2.862v15.617c0 .529-.029 1.062-.087 1.586-.161 1.464-1.401 2.548-2.841 2.548zm-175.11-.024c-1.441 0-2.681-1.086-2.842-2.552-.056-.513-.084-1.037-.084-1.558v-15.641c0-1.581 1.282-2.862 2.862-2.862s2.862 1.282 2.862 2.862v15.641c0 .314.017.629.051.937.171 1.571-.963 2.984-2.535 3.156-.106.011-.211.017-.314.017zm175.176-33.756c-1.581 0-2.862-1.282-2.862-2.862v-16.891c0-1.581 1.282-2.862 2.862-2.862 1.581 0 2.862 1.282 2.862 2.862v16.891c0 1.581-1.281 2.862-2.862 2.862zm-175.24-.024c-1.581 0-2.862-1.282-2.862-2.862v-16.891c0-1.581 1.282-2.862 2.862-2.862s2.862 1.282 2.862 2.862v16.891c0 1.581-1.282 2.862-2.862 2.862zm175.24-33.758c-1.581 0-2.862-1.282-2.862-2.862v-16.891c0-1.581 1.282-2.862 2.862-2.862 1.581 0 2.862 1.282 2.862 2.862v16.891c0 1.581-1.281 2.862-2.862 2.862zm-175.24-.024c-1.581 0-2.862-1.282-2.862-2.862v-16.891c0-1.581 1.282-2.862 2.862-2.862s2.862 1.282 2.862 2.862v16.891c0 1.581-1.282 2.862-2.862 2.862z" fill="#5d61d8" data-original="#4671c6" style="" class=""/></g></g></g><g><g><g><path d="m215.62 130.264c-1.581 0-2.862-1.282-2.862-2.862v-8.11c0-1.581 1.282-2.862 2.862-2.862h8.11c1.581 0 2.862 1.282 2.862 2.862s-1.282 2.862-2.862 2.862h-5.247v5.247c-.001 1.582-1.282 2.863-2.863 2.863z" fill="#5d61d8" data-original="#4671c6" style="" class=""/></g></g></g><g><g><g><path d="m245.273 122.155h-5.5c-1.581 0-2.862-1.282-2.862-2.862s1.282-2.862 2.862-2.862h5.5c.789 0 .962-.714.962-.989 0-.586-.792-1.06-1.249-1.435-1.222-1.003-1.4-2.806-.397-4.028 1.003-1.221 2.806-1.4 4.028-.397 1 .82 3.342 2.439 3.342 5.86 0 3.764-2.937 6.713-6.686 6.713zm-229.086 0h-5.46c-3.749 0-6.686-2.949-6.686-6.714 0-3.403 2.329-5.028 3.373-5.885 1.223-1.003 3.026-.825 4.028.397 1.003 1.222.825 3.026-.397 4.028-.465.381-1.28.874-1.28 1.46 0 .275.173.989.962.989h5.46c1.581 0 2.862 1.282 2.862 2.862s-1.281 2.863-2.862 2.863zm218.21-17.675c-.639 0-1.281-.212-1.814-.649l-12.403-10.176c-1.222-1.003-1.4-2.806-.397-4.028s2.806-1.401 4.028-.397l12.402 10.176c1.222 1.003 1.4 2.806.397 4.028-.565.689-1.386 1.046-2.213 1.046zm-212.763-.025c-.828 0-1.649-.357-2.215-1.047-1.003-1.222-.825-3.026.397-4.028l12.403-10.176c1.223-1.002 3.026-.825 4.028.397 1.003 1.222.825 3.026-.397 4.028l-12.403 10.176c-.532.437-1.175.65-1.813.65zm187.957-20.327c-.639 0-1.281-.212-1.814-.649l-12.403-10.176c-1.222-1.003-1.4-2.806-.397-4.028 1.003-1.221 2.806-1.401 4.028-.397l12.403 10.176c1.222 1.003 1.4 2.806.397 4.028-.565.689-1.386 1.046-2.214 1.046zm-163.151-.025c-.828 0-1.649-.357-2.215-1.047-1.003-1.222-.825-3.026.397-4.028l12.403-10.176c1.223-1.002 3.026-.825 4.028.397 1.003 1.222.825 3.026-.397 4.028l-12.403 10.176c-.532.437-1.175.65-1.813.65zm138.345-20.327c-.639 0-1.281-.212-1.814-.649l-12.403-10.176c-1.222-1.003-1.4-2.806-.397-4.028 1.003-1.221 2.805-1.401 4.028-.397l12.403 10.176c1.222 1.003 1.4 2.806.397 4.028-.565.689-1.386 1.046-2.214 1.046zm-113.54-.025c-.828 0-1.649-.357-2.215-1.047-1.003-1.222-.825-3.026.397-4.028l12.404-10.176c1.223-1.002 3.026-.825 4.028.397 1.003 1.222.825 3.026-.397 4.028l-12.403 10.177c-.532.436-1.175.649-1.814.649zm88.735-20.327c-.639 0-1.281-.212-1.814-.649l-12.403-10.176c-1.222-1.003-1.4-2.806-.397-4.028 1.003-1.221 2.805-1.401 4.028-.397l12.403 10.176c1.222 1.003 1.4 2.806.397 4.028-.566.689-1.387 1.046-2.214 1.046zm-63.929-.025c-.828 0-1.649-.357-2.215-1.047-1.003-1.222-.825-3.026.397-4.028l12.403-10.176c1.223-1.002 3.026-.825 4.028.397 1.003 1.222.825 3.026-.397 4.028l-12.402 10.176c-.533.437-1.175.65-1.814.65zm39.123-20.327c-.639 0-1.281-.212-1.814-.649-1.368-1.122-2.741-2.507-5.36-2.507-2.615 0-3.992 1.384-5.33 2.482-1.222 1.003-3.025.825-4.028-.397s-.825-3.026.397-4.028c1.402-1.15 4.151-3.781 8.961-3.781 4.718 0 7.41 2.509 8.991 3.806 1.222 1.003 1.4 2.806.397 4.028-.566.689-1.386 1.046-2.214 1.046z" fill="#5d61d8" data-original="#4671c6" style="" class=""/></g></g></g></g><g><g><path d="m106.139 100.223-8.619 19.371 11.619 8.76c.338 6.363.603 13.384.416 20.793h36.663c-.186-7.352.078-14.401.414-20.787l11.628-8.767-8.619-19.371c-1.287-2.893-4.156-4.756-7.322-4.756h-28.859c-3.165 0-6.034 1.864-7.321 4.757z" fill="#02c6c0" data-original="#6bdddd" style="" class=""/></g></g><g><g><path d="m146.219 151.147h-36.664c-.539 0-1.056-.218-1.432-.604s-.581-.908-.567-1.447c.244-9.645-.278-18.55-.74-26.406-.107-1.829-.21-3.586-.298-5.263-.058-1.103.79-2.044 1.893-2.102 1.101-.055 2.044.79 2.102 1.893.087 1.668.19 3.417.297 5.237.433 7.379.92 15.674.787 24.691h32.583c-.133-9.028.357-17.416.793-24.877.1-1.706.196-3.346.279-4.911.059-1.103 1.014-1.949 2.103-1.891 1.103.059 1.95 1 1.891 2.103-.083 1.571-.179 3.218-.28 4.932-.464 7.945-.99 16.951-.747 26.594.014.539-.191 1.061-.567 1.447-.377.386-.894.604-1.433.604z" fill="#292142" data-original="#3762cc" style="" class=""/></g></g><g><g><path d="m128.123 104.31c-4.326 0-7.833-3.507-7.833-7.833v-14.512h15.667v14.511c0 4.326-3.507 7.834-7.834 7.834z" fill="#f9cfcf" data-original="#f9cfcf" style="" class=""/></g></g><g><g><path d="m87.317 166.36c-1.063 0-2.131-.27-3.089-.823l-2.469-1.425c-2.628-1.518-3.776-4.668-2.729-7.491.914-2.463 2.292-4.681 4.098-6.591l4.14-4.378 9.677-25.783c.222-.591.709-1.042 1.314-1.218.605-.175 1.258-.057 1.762.323l10.322 7.782c.472.356.762.901.793 1.491l.023.449c.018.326-.046.651-.183.948l-10.819 23.281-.546 8.553c.007 1.154-.399 2.171-1.148 2.875-.731.685-1.737 1.024-2.75.931-1.235-.113-2.274-.854-2.827-1.879-.368.378-.787.789-1.282 1.258-1.178 1.117-2.728 1.697-4.287 1.697zm12.433-42.581-8.879 23.656c-.094.25-.236.478-.419.671l-4.417 4.671c-1.434 1.518-2.529 3.278-3.255 5.234-.366.988.045 2.096.979 2.636l2.469 1.425c.839.484 1.917.356 2.622-.313 2.269-2.153 2.605-2.735 4.22-5.533.467-.809 1.431-1.188 2.324-.91.214.066.41.166.583.292l.211-3.314c.016-.248.078-.49.183-.715l10.444-22.474z" fill="#292142" data-original="#3762cc" style="" class=""/></g></g><g><g><path d="m198.091 228.031h-140.182c-4.259 0-7.724-3.465-7.724-7.724v-106.232h-17.363c-1.672 0-3.117-1.018-3.68-2.592s-.092-3.277 1.201-4.337l92.771-75.767c2.832-2.312 6.94-2.312 9.772 0l92.768 75.765c1.296 1.063 1.768 2.766 1.204 4.34-.563 1.575-2.007 2.592-3.68 2.592h-17.363v106.232c0 4.258-3.464 7.723-7.724 7.723zm-165.011-117.957h19.105c1.104 0 2 .896 2 2v108.232c0 2.054 1.67 3.724 3.724 3.724h140.183c2.054 0 3.724-1.67 3.724-3.724v-108.231c0-1.104.896-2 2-2h19.104l-92.564-75.599c-1.365-1.114-3.347-1.115-4.712 0z" fill="#292142" data-original="#3762cc" style="" class=""/></g></g><g><g><path d="m168.464 166.36c-1.559 0-3.108-.58-4.286-1.697-.495-.47-.914-.88-1.282-1.258-.552 1.025-1.591 1.766-2.827 1.879-1.012.098-2.021-.246-2.751-.931-.75-.703-1.155-1.721-1.148-2.875l-.546-8.553-10.826-23.296c-.137-.296-.2-.621-.183-.947l.021-.427c.031-.59.321-1.137.793-1.493l10.33-7.788c.504-.38 1.157-.499 1.762-.323s1.093.627 1.314 1.218l9.677 25.783 4.139 4.378c1.806 1.91 3.185 4.127 4.099 6.591 1.047 2.823-.101 5.974-2.729 7.491l-2.469 1.425c-.957.553-2.025.823-3.088.823zm-7.485-11.132c.7 0 1.368.369 1.732 1 1.615 2.797 1.951 3.379 4.221 5.533.704.668 1.781.796 2.621.312l2.469-1.425c.934-.539 1.346-1.648.979-2.636-.726-1.957-1.821-3.717-3.255-5.234l-4.417-4.671c-.183-.193-.326-.422-.419-.671l-8.879-23.656-7.065 5.327 10.444 22.474c.104.225.166.468.182.715l.211 3.314c.173-.126.37-.226.583-.292.196-.061.396-.09.593-.09z" fill="#292142" data-original="#3762cc" style="" class=""/></g></g><g><g><path d="m146.219 151.146h-36.664c-.539 0-1.056-.218-1.432-.604s-.581-.908-.567-1.447c.185-7.286-.086-14.27-.365-19.707l-10.875-8.198c-.743-.561-1.001-1.56-.623-2.41l8.619-19.371c1.606-3.61 5.198-5.943 9.149-5.943h4.829v-11.501c0-1.104.896-2 2-2h15.667c1.104 0 2 .896 2 2v11.501h4.363c3.952 0 7.543 2.333 9.149 5.943l8.619 19.371c.378.851.12 1.85-.623 2.41l-10.883 8.204c-.278 5.454-.547 12.449-.364 19.701.014.539-.191 1.061-.567 1.447-.376.387-.893.604-1.432.604zm-34.623-4h32.583c-.102-7.06.186-13.74.457-18.892.031-.59.321-1.136.793-1.492l10.358-7.809-7.973-17.918c-.965-2.168-3.121-3.569-5.495-3.569h-6.363c-1.104 0-2-.896-2-2v-11.501h-11.666v11.501c0 1.104-.896 2-2 2h-6.829c-2.373 0-4.53 1.401-5.495 3.569l-7.972 17.918 10.35 7.802c.471.355.762.901.793 1.491.273 5.14.561 11.81.459 18.9z" fill="#292142" data-original="#3762cc" style="" class=""/></g></g><g><g><path d="m128.122 89.247c-9.762 0-17.675-7.913-17.675-17.675v-7.403c0-2.454 1.989-4.443 4.443-4.443h30.907v11.846c0 9.762-7.913 17.675-17.675 17.675z" fill="#5d61d8" data-original="#4671c6" style="" class=""/></g></g><g><g><path d="m128.122 91.248c-10.849 0-19.675-8.826-19.675-19.675v-7.403c0-3.553 2.89-6.443 6.443-6.443h30.907c1.104 0 2 .896 2 2v11.846c0 10.848-8.826 19.675-19.675 19.675zm-13.232-29.521c-1.347 0-2.443 1.096-2.443 2.443v7.403c0 8.644 7.032 15.675 15.675 15.675 8.644 0 15.675-7.032 15.675-15.675v-9.846z" fill="#292142" data-original="#3762cc" style="" class=""/></g></g><g><g><path d="m143.176 72.767v-1.41c0-8.239-6.74-14.918-15.054-14.918-8.314 0-15.054 6.679-15.054 14.918v1.41c-2.614-.053-4.688 2.029-4.688 4.547 0 2.688 2.347 4.814 5.085 4.524 1.554 6.6 7.524 11.518 14.656 11.518 7.133 0 13.103-4.918 14.656-11.518 2.735.289 5.085-1.833 5.085-4.524.002-2.519-2.073-4.6-4.686-4.547z" fill="#f9cfcf" data-original="#f9cfcf" style="" class=""/></g></g><g><g><path d="m124.858 86.492c-.254 0-.509-.097-.704-.29-.392-.389-.395-1.022-.006-1.415.542-.546 1.254-.978 2.06-1.248.548-.183 1.155-.28 1.806-.288.701-.01 1.306.068 1.86.237.872.266 1.639.714 2.219 1.298.389.392.387 1.025-.005 1.414-.393.39-1.025.387-1.414-.005-.348-.35-.826-.625-1.382-.794-.354-.108-.778-.16-1.251-.15-.444.005-.847.068-1.197.185-.51.171-.951.434-1.274.76-.197.198-.455.296-.712.296z" fill="#292142" data-original="#3762cc" style="" class=""/></g></g><g><g><path d="m135.938 80.275c-1.051 0-1.903-.852-1.903-1.903v-2.03c0-1.051.852-1.903 1.903-1.903 1.051 0 1.903.852 1.903 1.903v2.03c-.001 1.051-.852 1.903-1.903 1.903z" fill="#292142" data-original="#3762cc" style="" class=""/></g></g><g><g><path d="m120.303 80.414c-1.051 0-1.903-.852-1.903-1.903v-2.03c0-1.051.852-1.903 1.903-1.903 1.051 0 1.903.852 1.903 1.903v2.03c0 1.051-.852 1.903-1.903 1.903z" fill="#292142" data-original="#3762cc" style="" class=""/></g></g><g><g><path d="m128.122 95.356c-7.442 0-13.89-4.687-16.182-11.573-1.253-.198-2.436-.752-3.391-1.612-1.378-1.24-2.168-3.01-2.168-4.857 0-1.768.698-3.425 1.964-4.666.777-.762 1.709-1.307 2.727-1.609.172-9.182 7.755-16.6 17.051-16.6s16.879 7.417 17.051 16.6c1.017.301 1.949.847 2.726 1.608 1.267 1.241 1.964 2.898 1.964 4.666 0 1.847-.79 3.617-2.167 4.856-.956.86-2.139 1.414-3.392 1.612-2.293 6.887-8.741 11.575-16.183 11.575zm-14.655-15.518c.918 0 1.731.63 1.945 1.542 1.383 5.874 6.609 9.976 12.709 9.976s11.327-4.102 12.709-9.976c.231-.98 1.155-1.64 2.157-1.531.754.077 1.476-.152 2.032-.653.544-.489.843-1.158.843-1.883 0-.684-.271-1.327-.764-1.81-.5-.49-1.168-.759-1.883-.738-.558.014-1.058-.196-1.44-.571-.384-.376-.6-.891-.6-1.428v-1.409c0-7.123-5.856-12.918-13.054-12.918s-13.054 5.795-13.054 12.918v1.409c0 .538-.216 1.052-.6 1.428-.383.376-.897.587-1.44.571-.716-.03-1.383.248-1.883.738-.493.483-.764 1.125-.764 1.809 0 .725.3 1.394.844 1.883.556.5 1.277.729 2.031.652.072-.005.142-.009.212-.009z" fill="#292142" data-original="#3762cc" style="" class=""/></g></g><g><g><path d="m145.797 69.874h-23.618c-5.032 0-9.111-4.079-9.111-9.111 0-5.032 4.079-9.111 9.111-9.111h15.459c4.506 0 8.159 3.653 8.159 8.159z" fill="#5d61d8" data-original="#4671c6" style="" class=""/></g></g><g><g><path d="m145.797 71.874h-23.618c-6.126 0-11.111-4.984-11.111-11.111s4.984-11.111 11.111-11.111h15.459c5.602 0 10.159 4.557 10.159 10.159v10.063c0 1.104-.895 2-2 2zm-23.618-18.222c-3.921 0-7.111 3.19-7.111 7.111s3.19 7.111 7.111 7.111h21.618v-8.063c0-3.396-2.763-6.159-6.159-6.159z" fill="#292142" data-original="#3762cc" style="" class=""/></g></g><g><g><path d="m108.084 207.429-.035 1.378-9.609 7.14c-.578.43-.919 1.108-.919 1.829 0 1.258 1.02 2.278 2.278 2.278h17.122c2.161 0 3.912-1.752 3.912-3.912v-6.333l.308-2.378h-13.057z" fill="#f9cfcf" data-original="#f9cfcf" style="" class=""/></g></g><g><g><path d="m157.354 215.947-9.609-7.14-.018.001-.035-1.379h-13.057l.327 2.521v6.191c0 2.161 1.752 3.912 3.913 3.912h17.121c1.258 0 2.278-1.02 2.278-2.278-.001-.721-.342-1.399-.92-1.828z" fill="#f9cfcf" data-original="#f9cfcf" style="" class=""/></g></g><g><g><path d="m116.92 222.053h-17.122c-2.359 0-4.278-1.919-4.278-4.277 0-1.347.646-2.63 1.726-3.434l8.828-6.559.01-.404c.028-1.084.915-1.949 2-1.949h13.057c.575 0 1.123.248 1.502.68s.555 1.007.481 1.577l-.292 2.25v6.205c.001 3.258-2.652 5.911-5.912 5.911zm-6.97-12.624c-.127.389-.373.734-.708.983l-9.609 7.139c-.071.053-.112.134-.112.224 0 .153.125.277.278.277h17.122c1.055 0 1.913-.858 1.913-1.912v-6.333c0-.086.005-.172.017-.257l.016-.121zm-1.901-.622h.01z" fill="#292142" data-original="#3762cc" style="" class=""/></g></g><g><g><path d="m155.995 222.053h-17.122c-3.26 0-5.913-2.652-5.913-5.912v-6.062l-.31-2.393c-.074-.57.102-1.145.481-1.577.38-.432.927-.68 1.502-.68h13.057c1.084 0 1.972.865 2 1.949l.01.39 8.846 6.572c1.081.804 1.726 2.087 1.726 3.434.001 2.36-1.918 4.279-4.277 4.279zm-19.085-12.624.034.264c.011.085.017.171.017.257v6.19c0 1.054.858 1.912 1.913 1.912h17.122c.153 0 .278-.125.278-.277 0-.089-.041-.17-.112-.224l-9.495-7.055c-.095-.06-.185-.127-.269-.203-.263-.236-.459-.536-.569-.865h-8.919z" fill="#292142" data-original="#3762cc" style="" class=""/></g></g><g><g><path d="m146.219 149.147h-36.663l-1.472 58.282h13.057l6.093-46.98c.099-.765 1.207-.765 1.306 0l6.094 46.98h13.057z" fill="#5d61d8" data-original="#4671c6" style="" class=""/></g></g><g><g><path d="m147.691 209.429h-13.057c-1.005 0-1.854-.746-1.983-1.743l-4.763-36.724-4.763 36.724c-.129.997-.979 1.743-1.983 1.743h-13.057c-.539 0-1.056-.218-1.432-.604s-.581-.908-.567-1.447l1.472-58.282c.027-1.085.915-1.95 2-1.95h36.664c1.085 0 1.972.865 2 1.95l1.472 58.282c.014.539-.191 1.061-.567 1.447-.38.386-.897.604-1.436.604zm-11.299-4h9.248l-1.371-54.282h-32.763l-1.371 54.282h9.249l5.867-45.237c.174-1.342 1.283-2.316 2.636-2.316 1.354 0 2.463.974 2.637 2.317z" fill="#292142" data-original="#3762cc" style="" class=""/></g></g></g></g></svg>
