<?xml version="1.0"?>
<svg xmlns="http://www.w3.org/2000/svg" xmlns:xlink="http://www.w3.org/1999/xlink" xmlns:svgjs="http://svgjs.com/svgjs" version="1.1" width="512" height="512" x="0" y="0" viewBox="0 0 256 256" style="enable-background:new 0 0 512 512" xml:space="preserve" class=""><g><g xmlns="http://www.w3.org/2000/svg"><g><g><path d="m220.323 3c-18.047 0-32.677 14.63-32.677 32.676 0 6.412 1.854 12.387 5.044 17.433l-4.073 11.365c-.337.939.571 1.847 1.51 1.51l10.933-3.919c5.402 3.95 12.058 6.287 19.263 6.287 18.047 0 32.677-14.63 32.677-32.677s-14.63-32.675-32.677-32.675z" fill="#da9dff" data-original="#f9a7a7" style="" class=""/></g></g><g><g><g><path d="m81.587 136.794h-39.6c-1.491 0-2.7-1.209-2.7-2.7v-32.094c0-1.491 1.209-2.7 2.7-2.7h39.6c1.491 0 2.7 1.209 2.7 2.7v32.094c0 1.491-1.209 2.7-2.7 2.7z" fill="#f9cfcf" data-original="#f9cfcf" style="" class=""/></g></g><g><g><path d="m81.587 138.794h-39.6c-2.592 0-4.7-2.108-4.7-4.7v-32.094c0-2.592 2.108-4.7 4.7-4.7h39.6c2.591 0 4.7 2.108 4.7 4.7v32.094c0 2.592-2.109 4.7-4.7 4.7zm-39.6-37.494c-.386 0-.7.314-.7.7v32.094c0 .386.314.7.7.7h39.6c.386 0 .7-.314.7-.7v-32.094c0-.386-.314-.7-.7-.7z" fill="#292142" data-original="#3762cc" style="" class=""/></g></g><g><g><g><path d="m61.787 114.952c-29.068 0-52.632-23.564-52.632-52.632v-22.045c0-7.307 5.923-13.23 13.23-13.23h92.035v35.275c-.001 29.068-23.565 52.632-52.633 52.632z" fill="#5d61d8" data-original="#4671c6" style="" class=""/></g></g><g><g><path d="m61.787 116.952c-30.125 0-54.632-24.508-54.632-54.632v-22.045c0-8.397 6.832-15.229 15.229-15.229h92.035c1.104 0 2 .896 2 2v35.274c0 30.124-24.508 54.632-54.632 54.632zm-39.403-87.907c-6.192 0-11.229 5.038-11.229 11.229v22.046c0 27.919 22.713 50.632 50.632 50.632s50.632-22.713 50.632-50.632v-33.275z" fill="#292142" data-original="#3762cc" style="" class=""/></g></g><g><g><path d="m106.614 65.878v-4.198c0-24.534-20.07-44.423-44.827-44.423-24.757 0-44.827 19.889-44.827 44.423v4.197c-7.784-.157-13.96 6.044-13.96 13.539 0 8.004 6.987 14.335 15.143 13.473 4.626 19.654 22.404 34.297 43.643 34.297 21.24 0 39.017-14.644 43.643-34.297 8.145.861 15.143-5.458 15.143-13.473.001-7.499-6.179-13.696-13.958-13.538z" fill="#f9cfcf" data-original="#f9cfcf" style="" class=""/></g></g><g><g><path d="m61.787 129.186c-21.313 0-39.655-13.987-45.179-34.221-3.852-.019-7.588-1.441-10.46-4.026-3.272-2.943-5.148-7.143-5.148-11.522 0-4.192 1.656-8.124 4.663-11.07 2.542-2.491 5.788-4.01 9.296-4.382v-2.285c0-25.598 21.006-46.423 46.827-46.423s46.827 20.825 46.827 46.423v2.284c3.509.372 6.753 1.891 9.296 4.382 3.007 2.947 4.663 6.878 4.663 11.07 0 4.379-1.875 8.579-5.146 11.521-2.873 2.585-6.61 4.008-10.462 4.028-5.522 20.234-23.865 34.221-45.177 34.221zm-43.642-38.297c.918 0 1.731.631 1.945 1.542 4.539 19.286 21.686 32.755 41.696 32.755s37.157-13.47 41.697-32.756c.23-.979 1.15-1.64 2.157-1.53 3.325.35 6.647-.718 9.111-2.936 2.429-2.185 3.821-5.3 3.821-8.547 0-3.108-1.229-6.024-3.462-8.213-2.255-2.209-5.245-3.381-8.457-3.327-.537.013-1.056-.195-1.44-.571s-.6-.891-.6-1.429v-4.197c0-23.392-19.212-42.423-42.827-42.423s-42.827 19.031-42.827 42.423v4.197c0 .538-.216 1.052-.6 1.428s-.903.582-1.44.571c-3.188-.05-6.201 1.116-8.456 3.326-2.233 2.19-3.463 5.106-3.463 8.215 0 3.247 1.394 6.363 3.823 8.549 2.5 2.249 5.738 3.292 9.11 2.934.071-.008.142-.011.212-.011z" fill="#292142" data-original="#3762cc" style="" class=""/></g></g><g><g><path d="m16.959 3h70.329c14.984 0 27.131 12.147 27.131 27.131 0 14.984-12.147 27.131-27.131 27.131h-46.034c-13.418 0-24.295-10.877-24.295-24.295z" fill="#5d61d8" data-original="#4671c6" style="" class=""/></g></g><g><g><path d="m87.289 59.261h-46.035c-14.499 0-26.295-11.796-26.295-26.295v-29.966c0-1.104.896-2 2-2h70.329c16.063 0 29.13 13.068 29.13 29.13.001 16.063-13.067 29.131-29.129 29.131zm-68.33-54.261v27.966c0 12.293 10.001 22.295 22.295 22.295h46.034c13.857 0 25.13-11.273 25.13-25.13.001-13.858-11.272-25.131-25.129-25.131z" fill="#292142" data-original="#3762cc" style="" class=""/></g></g><g><g><path d="m35.002 89.964c-.704 0-1.386-.372-1.751-1.031-.535-.966-.186-2.184.78-2.719l9.082-5.031-9.082-5.03c-.966-.535-1.315-1.752-.78-2.719.536-.966 1.751-1.315 2.719-.78l12.24 6.78c.636.353 1.031 1.022 1.031 1.75s-.395 1.397-1.031 1.75l-12.24 6.78c-.307.169-.64.25-.968.25z" fill="#292142" data-original="#3762cc" style="" class=""/></g></g><g><g><path d="m89.377 89.964c-.328 0-.66-.081-.967-.251l-12.24-6.78c-.636-.353-1.031-1.022-1.031-1.75s.395-1.397 1.031-1.75l12.24-6.78c.968-.535 2.185-.185 2.719.78.535.966.186 2.184-.78 2.719l-9.082 5.03 9.082 5.031c.966.535 1.315 1.752.78 2.719-.365.66-1.048 1.032-1.752 1.032z" fill="#292142" data-original="#3762cc" style="" class=""/></g></g><g><g><ellipse cx="61.787" cy="104.14" fill="#da9dff" rx="9.9" ry="10.395" data-original="#f9a7a7" style="" class=""/></g></g></g></g><g><g><g><path d="m214.008 253h-39.6c-1.491 0-2.7-1.209-2.7-2.7v-32.094c0-1.491 1.209-2.7 2.7-2.7h39.6c1.491 0 2.7 1.209 2.7 2.7v32.094c0 1.491-1.209 2.7-2.7 2.7z" fill="#f9cfcf" data-original="#f9cfcf" style="" class=""/></g></g><g><g><path d="m214.008 255h-39.601c-2.591 0-4.699-2.108-4.699-4.7v-32.094c0-2.592 2.108-4.7 4.699-4.7h39.601c2.592 0 4.7 2.108 4.7 4.7v32.094c0 2.592-2.108 4.7-4.7 4.7zm-39.601-37.494c-.386 0-.699.314-.699.7v32.094c0 .386.313.7.699.7h39.601c.386 0 .7-.314.7-.7v-32.094c0-.386-.314-.7-.7-.7z" fill="#292142" data-original="#3762cc" style="" class=""/></g></g><g><g><g><path d="m194.213 232.453c-29.068 0-52.633-23.564-52.633-52.632v-22.045c0-7.307 5.923-13.23 13.23-13.23h92.035v35.275c.001 29.068-23.564 52.632-52.632 52.632z" fill="#5d61d8" data-original="#4671c6" style="" class=""/></g></g><g><g><path d="m194.213 234.453c-30.124 0-54.632-24.508-54.632-54.632v-22.045c0-8.397 6.832-15.229 15.229-15.229h92.035c1.104 0 2 .896 2 2v35.275c.001 30.123-24.507 54.631-54.632 54.631zm-39.402-87.907c-6.192 0-11.229 5.038-11.229 11.229v22.045c0 27.919 22.713 50.632 50.632 50.632s50.633-22.713 50.633-50.632v-33.275h-90.036z" fill="#292142" data-original="#3762cc" style="" class=""/></g></g><g><g><path d="m239.041 183.378v-4.197c0-24.534-20.07-44.423-44.827-44.423-24.757 0-44.827 19.889-44.827 44.423v4.197c-7.784-.158-13.959 6.043-13.959 13.539 0 8.004 6.987 14.335 15.143 13.473 4.626 19.654 22.404 34.297 43.643 34.297 21.24 0 39.017-14.644 43.643-34.297 8.145.861 15.143-5.458 15.143-13.473 0-7.499-6.18-13.696-13.959-13.539z" fill="#f9cfcf" data-original="#f9cfcf" style="" class=""/></g></g><g><g><path d="m194.208 223.684c-4.837 0-8.657-1.789-11.135-4.286-.778-.784-.772-2.051.012-2.829s2.052-.772 2.828.011c1.795 1.809 4.616 3.103 8.295 3.103 3.708 0 6.523-1.318 8.294-3.103.776-.784 2.044-.79 2.828-.011.784.778.79 2.044.012 2.829-2.491 2.511-6.307 4.286-11.134 4.286z" fill="#292142" data-original="#3762cc" style="" class=""/></g></g><g><g><path d="m217.486 206.148c-3.129 0-5.666-2.537-5.666-5.666v-6.044c0-3.129 2.537-5.666 5.666-5.666 3.129 0 5.666 2.537 5.666 5.666v6.044c0 3.13-2.537 5.666-5.666 5.666z" fill="#292142" data-original="#3762cc" style="" class=""/></g></g><g><g><path d="m170.929 206.148c-3.129 0-5.666-2.537-5.666-5.666v-6.044c0-3.129 2.537-5.666 5.666-5.666 3.129 0 5.666 2.537 5.666 5.666v6.044c0 3.13-2.537 5.666-5.666 5.666z" fill="#292142" data-original="#3762cc" style="" class=""/></g></g><g><g><path d="m194.213 246.687c-21.313 0-39.654-13.987-45.178-34.221-3.853-.019-7.589-1.442-10.461-4.027-3.271-2.943-5.147-7.143-5.147-11.522 0-4.192 1.656-8.123 4.663-11.07 2.542-2.491 5.787-4.01 9.296-4.382v-2.284c0-25.598 21.007-46.424 46.827-46.424 25.821 0 46.828 20.826 46.828 46.424v2.284c3.509.372 6.753 1.891 9.296 4.382 3.007 2.947 4.663 6.878 4.663 11.069 0 4.379-1.876 8.579-5.146 11.521-2.873 2.585-6.61 4.008-10.463 4.028-5.523 20.235-23.866 34.222-45.178 34.222zm-43.641-38.297c.917 0 1.73.63 1.945 1.542 4.539 19.286 21.685 32.755 41.695 32.755s37.157-13.47 41.696-32.755c.231-.981 1.171-1.64 2.157-1.531 3.328.349 6.648-.718 9.112-2.936 2.429-2.185 3.821-5.301 3.821-8.548 0-3.108-1.229-6.024-3.463-8.212-2.255-2.21-5.272-3.392-8.455-3.327-.544.008-1.057-.195-1.44-.571-.384-.376-.601-.891-.601-1.429v-4.197c0-23.393-19.213-42.424-42.828-42.424s-42.827 19.031-42.827 42.424v4.197c0 .538-.217 1.052-.601 1.429-.384.375-.935.581-1.439.571-3.221-.046-6.201 1.116-8.456 3.326-2.233 2.188-3.463 5.105-3.463 8.213 0 3.247 1.394 6.363 3.822 8.549 2.5 2.25 5.736 3.292 9.111 2.935.073-.008.144-.011.214-.011z" fill="#292142" data-original="#3762cc" style="" class=""/></g></g><g><g><path d="m246.846 174.762h-70.329c-14.984 0-27.131-12.147-27.131-27.131 0-14.984 12.147-27.131 27.131-27.131h46.034c13.418 0 24.295 10.877 24.295 24.295z" fill="#5d61d8" data-original="#4671c6" style="" class=""/></g></g><g><g><path d="m246.846 176.762h-70.329c-16.063 0-29.131-13.068-29.131-29.13 0-16.063 13.068-29.131 29.131-29.131h46.034c14.499 0 26.295 11.796 26.295 26.295v29.966c0 1.104-.896 2-2 2zm-70.329-54.262c-13.857 0-25.131 11.273-25.131 25.131 0 13.857 11.273 25.13 25.131 25.13h68.329v-27.966c0-12.293-10.001-22.295-22.295-22.295z" fill="#292142" data-original="#3762cc" style="" class=""/></g></g></g></g><g><g><g><g><g><path d="m87.933 118.443c-.531.175-1.13.148-1.669-.124l-2.441-1.23c-1.079-.543-1.513-1.858-.969-2.937.543-1.078 1.859-1.513 2.937-.969l2.441 1.23c1.079.543 1.513 1.858.969 2.937-.272.539-.737.918-1.268 1.093z" fill="#6bdddd" data-original="#6bdddd" style=""/></g></g></g><g><g><g><path d="m142.407 145.879c-.531.175-1.13.148-1.669-.123l-4.54-2.286c-1.079-.543-1.513-1.858-.969-2.937.543-1.078 1.858-1.513 2.937-.969l4.54 2.286c1.079.543 1.513 1.858.969 2.937-.272.538-.737.916-1.268 1.092zm-10.895-5.487c-.531.175-1.13.148-1.669-.124l-4.539-2.286c-1.079-.543-1.513-1.858-.969-2.937.543-1.078 1.858-1.513 2.937-.969l4.539 2.286c1.079.543 1.513 1.858.969 2.937-.272.539-.737.917-1.268 1.093zm-10.895-5.488c-.531.175-1.13.148-1.669-.124l-4.539-2.286c-1.079-.543-1.513-1.858-.969-2.937.543-1.078 1.858-1.513 2.937-.969l4.539 2.286c1.079.543 1.513 1.858.969 2.937-.272.54-.737.918-1.268 1.093zm-10.894-5.487c-.531.175-1.13.148-1.669-.123l-4.54-2.286c-1.079-.543-1.513-1.858-.969-2.937.543-1.078 1.858-1.513 2.937-.969l4.54 2.286c1.079.543 1.513 1.858.969 2.937-.272.539-.737.917-1.268 1.092zm-10.895-5.487c-.531.175-1.13.148-1.669-.124l-4.539-2.286c-1.079-.543-1.513-1.858-.969-2.937.544-1.078 1.859-1.513 2.937-.969l4.539 2.286c1.079.543 1.513 1.858.969 2.937-.273.54-.737.918-1.268 1.093z" fill="#6bdddd" data-original="#6bdddd" style=""/></g></g></g><g><g><g><path d="m151.203 150.309c-.531.175-1.13.148-1.669-.124l-2.441-1.23c-1.079-.543-1.513-1.858-.969-2.937.542-1.078 1.859-1.513 2.937-.969l2.441 1.23c1.079.543 1.513 1.858.969 2.937-.272.539-.737.918-1.268 1.093z" fill="#6bdddd" data-original="#6bdddd" style=""/></g></g></g></g><g><g><g><g><path d="m81.729 131.15c-.806.266-1.729.047-2.326-.63l-1.809-2.05c-.799-.906-.713-2.288.193-3.087.907-.799 2.288-.713 3.087.193l1.809 2.05c.799.906.713 2.288-.193 3.087-.23.202-.489.347-.761.437z" fill="#6bdddd" data-original="#6bdddd" style=""/></g></g></g><g><g><g><path d="m120.053 174.584c-.806.266-1.729.047-2.327-.63l-3.992-4.524c-.799-.906-.713-2.288.193-3.087s2.288-.713 3.087.193l3.992 4.524c.799.906.713 2.288-.193 3.087-.229.202-.488.347-.76.437zm-9.581-10.858c-.806.266-1.729.047-2.327-.63l-3.992-4.524c-.799-.906-.713-2.288.193-3.087.908-.8 2.288-.713 3.087.193l3.992 4.524c.799.906.713 2.288-.193 3.087-.229.202-.488.347-.76.437zm-9.581-10.859c-.806.266-1.729.047-2.327-.63l-3.992-4.524c-.799-.906-.713-2.288.193-3.087.907-.799 2.288-.713 3.087.193l3.992 4.524c.799.906.713 2.288-.193 3.087-.228.202-.488.347-.76.437zm-9.582-10.858c-.806.266-1.729.047-2.327-.63l-3.992-4.524c-.799-.906-.713-2.288.193-3.087.908-.8 2.288-.713 3.087.193l3.992 4.524c.799.906.713 2.288-.193 3.087-.228.201-.487.347-.76.437z" fill="#6bdddd" data-original="#6bdddd" style=""/></g></g></g><g><g><g><path d="m127.451 182.968c-.806.266-1.729.047-2.327-.63l-1.808-2.05c-.799-.906-.712-2.288.193-3.087.906-.799 2.288-.713 3.086.193l1.808 2.05c.799.906.712 2.288-.193 3.087-.228.202-.487.347-.759.437z" fill="#6bdddd" data-original="#6bdddd" style=""/></g></g></g></g><g><g><g><g><path d="m94.447 105.893c-.272.09-.567.127-.871.101l-2.723-.233c-1.203-.103-2.096-1.162-1.992-2.365.103-1.203 1.16-2.095 2.365-1.993l2.723.233c1.203.103 2.096 1.162 1.992 2.365-.076.9-.688 1.626-1.494 1.892z" fill="#6bdddd" data-original="#6bdddd" style=""/></g></g></g><g><g><g><path d="m152.161 110.829c-.273.09-.567.128-.871.101l-6.012-.514c-1.203-.103-2.096-1.162-1.992-2.365.103-1.203 1.16-2.095 2.365-1.993l6.011.514c1.203.103 2.096 1.162 1.993 2.365-.076.9-.687 1.626-1.494 1.892zm-14.428-1.234c-.272.09-.567.127-.871.101l-6.012-.514c-1.203-.103-2.096-1.162-1.992-2.365.103-1.203 1.16-2.095 2.365-1.993l6.012.514c1.203.103 2.096 1.162 1.992 2.365-.076.9-.688 1.626-1.494 1.892zm-14.429-1.234c-.272.09-.567.127-.871.101l-6.012-.514c-1.203-.103-2.096-1.162-1.992-2.365.103-1.203 1.159-2.095 2.365-1.993l6.012.514c1.203.103 2.096 1.162 1.992 2.365-.076.9-.687 1.626-1.494 1.892zm-14.428-1.234c-.272.09-.567.127-.871.101l-6.012-.514c-1.203-.103-2.096-1.162-1.992-2.365s1.16-2.095 2.365-1.993l6.012.514c1.203.103 2.096 1.162 1.992 2.365-.077.9-.688 1.626-1.494 1.892z" fill="#6bdddd" data-original="#6bdddd" style=""/></g></g></g><g><g><g><path d="m163.303 111.781c-.273.09-.567.128-.871.101l-2.724-.233c-1.203-.103-2.096-1.162-1.993-2.365.102-1.204 1.165-2.096 2.365-1.993l2.724.233c1.203.103 2.096 1.162 1.993 2.365-.077.9-.688 1.626-1.494 1.892z" fill="#6bdddd" data-original="#6bdddd" style=""/></g></g></g></g></g><g><g><path d="m200.151 110.218h-6.477c1.235-14.751-8.433-31.369-25.362-41.061-20.061-11.484-43.35-9.257-54.174 4.509-1.307 1.662-.786 4.111 1.049 5.161 1.515.867 3.42.471 4.5-.9 8.701-11.042 28.141-12.429 45.146-2.695 14.79 8.467 23.257 22.784 21.844 34.986h-6.195c-1.576 0-2.532 1.737-1.69 3.069l9.834 15.554c.785 1.241 2.596 1.241 3.381 0l9.834-15.554c.842-1.332-.115-3.069-1.69-3.069z" fill="#da9dff" data-original="#f9a7a7" style="" class=""/></g></g><g><g><g><path d="m244.362 32.148c-.956 0-1.733.732-1.823 1.664h-2.893c-.375-3.979-1.944-7.609-4.354-10.523l2.042-2.042c1.802 1.484 4.103-1.079 2.466-2.716l-1.177-1.177c-7.071-7.071 4.472 8.944 0-.001l-1.177-1.177c-.719-.719-1.885-.719-2.604 0-.676.676-.708 1.743-.113 2.466l-2.042 2.043c-2.914-2.41-6.545-3.979-10.523-4.354v-2.894c2.323-.225 2.139-3.664-.177-3.664h-3.329c-1.017 0-1.841.824-1.841 1.841 0 .956.732 1.733 1.665 1.823v2.894c-3.979.375-7.609 1.944-10.523 4.354l-2.043-2.042c1.484-1.801-1.078-4.103-2.716-2.466-.225.225-1.177 1.177-1.177 1.177-.001.001-1.176 1.176-1.177 1.177-.719.719-.719 1.885 0 2.604.36.36.831.539 1.302.539.415 0 .826-.148 1.164-.427l2.043 2.042c-2.41 2.914-3.979 6.545-4.354 10.523h-2.893c-.09-.933-.867-1.664-1.823-1.664-1.017 0-1.841.824-1.841 1.841v3.329c0 1.017.824 1.841 1.841 1.841.956 0 1.733-.732 1.823-1.664h2.893c.375 3.979 1.944 7.609 4.354 10.524l-2.043 2.043c-.723-.596-1.79-.564-2.466.112-.719.719-.719 1.885 0 2.604.001.001 1.176 1.176 1.177 1.177 0 0 1.175 1.175 1.177 1.177.719.719 1.884.719 2.604 0 .676-.676.708-1.743.112-2.466l2.042-2.043c2.914 2.41 6.545 3.979 10.523 4.354v2.893c-.933.09-1.665.867-1.665 1.823 0 1.017.824 1.841 1.841 1.841h3.329c1.017 0 1.841-.824 1.841-1.841 0-.956-.732-1.733-1.664-1.823v-2.894c3.979-.375 7.609-1.944 10.523-4.354l2.042 2.042c-.995 1.208-.128 3.005 1.414 3.005 1.048 0 1.686-.923 2.479-1.716s.964-.964 1.177-1.177c.719-.719.719-1.885 0-2.604-.676-.676-1.743-.708-2.466-.112l-2.042-2.042c2.41-2.914 3.979-6.545 4.354-10.524h2.893c.09.933.867 1.664 1.823 1.664 1.017 0 1.841-.824 1.841-1.841v-3.329c.002-1.016-.822-1.84-1.839-1.84z" fill="#6bdddd" data-original="#6bdddd" style=""/></g></g><g><g><circle cx="220.323" cy="35.653" fill="#5d61d8" r="14.792" data-original="#4671c6" style="" class=""/></g></g><g><g><g><circle cx="217.187" cy="31.956" fill="#a4c9ff" r="6.018" data-original="#a4c9ff" style=""/></g></g><g><g><circle cx="226.13" cy="42.02" fill="#a4c9ff" r="3.348" data-original="#a4c9ff" style=""/></g></g></g><g><g><path d="m230.989 32.599c-.647.647-1.696.647-2.343 0l-2.343-2.343c-.647-.647-.647-1.696 0-2.343.647-.647 1.696-.647 2.343 0l2.343 2.343c.647.647.647 1.696 0 2.343z" fill="#a4c9ff" data-original="#a4c9ff" style=""/></g></g><g><g><path d="m216.162 44.315c-.647.647-1.696.647-2.343 0l-2.343-2.343c-.647-.647-.647-1.696 0-2.343.647-.647 1.696-.647 2.343 0l2.343 2.343c.647.647.647 1.696 0 2.343z" fill="#a4c9ff" data-original="#a4c9ff" style=""/></g></g></g><g><g><path d="m220.323 70.353c-7.045 0-13.787-2.089-19.568-6.053l-9.952 3.567c-1.167.418-2.443.134-3.323-.746-.879-.879-1.164-2.153-.744-3.323l3.75-10.462c-3.169-5.342-4.839-11.426-4.839-17.66-.001-19.12 15.555-34.676 34.676-34.676s34.677 15.556 34.677 34.676-15.556 34.677-34.677 34.677zm-19.262-10.287c.419 0 .833.131 1.181.385 5.28 3.861 11.533 5.901 18.082 5.901 16.915 0 30.677-13.762 30.677-30.677s-13.763-30.675-30.678-30.675-30.677 13.761-30.677 30.676c0 5.806 1.638 11.465 4.735 16.364.329.521.4 1.164.192 1.744l-3.488 9.733 9.3-3.333c.22-.079.448-.118.676-.118z" fill="#292142" data-original="#3762cc" style="" class=""/></g></g><g><g><path d="m96.499 225.314v-6.477c-14.751 1.235-31.369-8.433-41.061-25.362-11.484-20.061-9.257-43.35 4.509-54.174 1.662-1.307 4.111-.786 5.161 1.049.867 1.515.471 3.42-.9 4.5-11.042 8.701-12.429 28.141-2.695 45.146 8.467 14.79 22.784 23.257 34.986 21.844v-6.195c0-1.576 1.737-2.532 3.069-1.69l15.554 9.834c1.241.785 1.241 2.596 0 3.381l-15.554 9.834c-1.332.842-3.069-.115-3.069-1.69z" fill="#da9dff" data-original="#f9a7a7" style="" class=""/></g></g></g></g></svg>
